<svg width="23" height="22" viewBox="0 0 23 22" fill="none" xmlns="http://www.w3.org/2000/svg">
<path d="M7.76357 9.74631C10.9919 10.3903 13.3594 13.6105 12.5846 17.1312C12.1111 19.4926 10.2171 21.3818 7.89271 21.8541C3.88954 22.7128 0.359863 19.6644 0.359863 15.8002V5.15223C0.359863 4.59408 0.790312 4.12179 1.39294 4.12179H3.45909C4.01867 4.12179 4.49217 4.59408 4.49217 5.15223V15.8002C4.49217 16.9594 5.39611 17.8611 6.55832 17.8611C7.67748 17.8611 8.62447 16.9594 8.62447 15.8002C8.62447 14.9415 8.02184 14.1686 7.24704 13.8681C6.85963 13.7393 6.55832 13.3958 6.55832 12.9235V10.7768C6.55832 10.1327 7.1179 9.6175 7.76357 9.74631ZM9.35623 0C16.3725 0.386418 22.0114 6.01094 22.3558 13.0094C22.3988 13.4387 22.0975 13.7393 21.6671 13.7393H20.2896C19.9453 13.7393 19.6439 13.4817 19.6009 13.0953C19.2996 7.55661 14.8229 3.04841 9.27014 2.74786C8.88274 2.74786 8.62447 2.44731 8.62447 2.06089V0.686965C8.62447 0.300547 8.92579 0 9.35623 0ZM9.35623 4.12179C14.0912 4.5082 17.8791 8.28651 18.2235 13.0094C18.2665 13.3958 17.9652 13.7393 17.5348 13.7393H16.1573C15.813 13.7393 15.5116 13.4817 15.4686 13.1382C15.1673 9.83218 12.5416 7.17019 9.2271 6.91258C8.88274 6.86965 8.62447 6.5691 8.62447 6.22562V4.85169C8.62447 4.42233 8.96883 4.12179 9.35623 4.12179Z" fill="#F9FAFB"/>
</svg>
