<svg width="20" height="21" viewBox="0 0 20 21" fill="none" xmlns="http://www.w3.org/2000/svg">
<rect y="0.5" width="20" height="20" rx="10" fill="#DD2B27"/>
<path d="M15.2587 7.77083C15.5 8.64583 15.5 10.5208 15.5 10.5208C15.5 10.5208 15.5 12.375 15.2587 13.2708C15.138 13.7708 14.7559 14.1458 14.2934 14.2708C13.4287 14.5 10.0101 14.5 10.0101 14.5C10.0101 14.5 6.5713 14.5 5.70658 14.2708C5.24406 14.1458 4.86197 13.7708 4.74132 13.2708C4.5 12.375 4.5 10.5208 4.5 10.5208C4.5 10.5208 4.5 8.64583 4.74132 7.77083C4.86197 7.27083 5.24406 6.875 5.70658 6.75C6.5713 6.5 10.0101 6.5 10.0101 6.5C10.0101 6.5 13.4287 6.5 14.2934 6.75C14.7559 6.875 15.138 7.27083 15.2587 7.77083ZM8.88391 12.2083L11.7395 10.5208L8.88391 8.83333V12.2083Z" fill="#F9FAFB"/>
</svg>
