<svg width="16" height="16" viewBox="0 0 16 16" fill="none" xmlns="http://www.w3.org/2000/svg">
<g clip-path="url(#clip0_34_8938)">
<path fill-rule="evenodd" clip-rule="evenodd" d="M3.76407 0H3.68932C3.5602 0.00410506 3.43276 0.0305372 3.31266 0.078125L3.27878 0.0915625C2.76147 0.296281 1.23347 0.861813 0.85741 1.23797C0.295661 1.8 0.0373481 2.49778 0.00294181 3.28731C-0.0354644 4.16944 0.213192 5.08787 0.541129 5.89922C1.37238 7.95578 2.93313 9.95038 4.49113 11.5083C6.04913 13.0661 8.0436 14.627 10.1002 15.4583C10.8603 15.7656 11.7062 16 12.5316 16C12.5917 16 12.6518 15.9987 12.7119 15.9962C13.5014 15.9618 14.1997 15.7037 14.7615 15.1418C15.1427 14.7606 15.7025 13.2443 15.9074 12.722L15.9205 12.6886C16.0201 12.4401 16.0263 12.1639 15.938 11.9112C15.8496 11.6585 15.6727 11.4464 15.4399 11.3141L12.7036 9.73438C12.4471 9.58684 12.1426 9.547 11.8568 9.62357C11.571 9.70014 11.3272 9.88688 11.1789 10.1429C10.9083 10.6116 10.4982 10.9919 9.95388 11.1032C9.69795 11.1591 9.43289 11.1583 9.1773 11.1009C8.92171 11.0435 8.68177 10.9308 8.47432 10.7709C7.86663 10.3146 7.28707 9.78584 6.7501 9.249C6.21313 8.71216 5.68447 8.13259 5.2285 7.52503C5.06854 7.31758 4.95591 7.07764 4.8985 6.82205C4.84109 6.56646 4.84031 6.3014 4.89619 6.04547C5.00744 5.50128 5.38791 5.09109 5.8565 4.82047C6.11245 4.67208 6.29917 4.4283 6.37576 4.14254C6.45236 3.85677 6.41259 3.55229 6.26516 3.29578L4.68516 0.559687C4.59215 0.395546 4.45868 0.257942 4.29745 0.159973C4.13622 0.0620048 3.9526 0.00693284 3.76407 0Z" fill="white"/>
</g>
<defs>
<clipPath id="clip0_34_8938">
<rect width="16" height="16" fill="white"/>
</clipPath>
</defs>
</svg>
