<svg width="90" height="90" viewBox="0 0 90 90" fill="none" xmlns="http://www.w3.org/2000/svg">
<path d="M37.4971 25.2852C37.8705 24.4726 38.8046 24.0819 39.6455 24.3867L41.71 25.1367C44.3872 26.1088 46.5101 28.0675 47.6934 30.6582C48.8763 33.2489 48.9666 36.1354 47.9482 38.7949L45.9355 44.0488L45.5195 45.1348H64.3096C66.4791 45.1348 68.5428 46.0718 69.9717 47.7041C71.4007 49.3367 72.0561 51.5066 71.7686 53.6572L68.4248 78.6719C67.9276 82.392 64.7188 85.2002 60.9658 85.2002H32.8799C30.106 85.2002 27.4038 84.057 25.4717 82.0664L22.9717 79.4912L22.8613 79.3877C22.5921 79.1613 22.2485 79.0352 21.8945 79.0352H17.9141V83.4805C17.9141 84.4301 17.144 85.2002 16.1943 85.2002H2.51953C1.56991 85.2002 0.799805 84.4301 0.799805 83.4805V46.5137C0.800007 45.5642 1.57003 44.7949 2.51953 44.7949H16.1943C17.1438 44.7949 17.9139 45.5642 17.9141 46.5137V50.3936H25C25.5852 50.3935 26.1188 50.0511 26.3633 49.5195L37.4971 25.2852ZM4.23926 81.7607H14.4746V48.2334H4.23926V81.7607ZM39.6523 28.8311L29.4883 50.9551C28.6855 52.7022 26.9225 53.832 25 53.832H17.9141V75.5967H21.8945C23.221 75.5967 24.5156 76.1438 25.4395 77.0957L27.9385 79.6709C29.2285 81.0001 31.0277 81.7607 32.8799 81.7607H60.9658C63.0061 81.7607 64.7452 80.239 65.0156 78.2168L68.3594 53.2012C68.5173 52.0199 68.1694 50.8664 67.3848 49.9697C66.5996 49.0728 65.5015 48.5742 64.3096 48.5742H43.0195C42.4537 48.5741 41.9242 48.2953 41.6035 47.8291C41.2829 47.3627 41.2119 46.7686 41.4141 46.2402L44.7363 37.5654C45.4211 35.7773 45.3599 33.8286 44.5645 32.0869C43.7886 30.388 42.406 29.0871 40.667 28.418L39.9658 28.1484L39.6523 28.8311Z" fill="white" stroke="#191B19" stroke-width="1.6"/>
<path d="M59.2021 0.799805H59.2314C62.0182 0.799913 64.6551 1.97066 66.5469 3.91699L67.1201 4.50781L67.6943 3.91797C69.5865 1.97169 72.2242 0.799937 75.0156 0.799805C80.6312 0.799805 85.2002 5.36629 85.2002 10.9756C85.2001 16.7426 82.2521 22.5151 76.5049 27.6553C74.2996 29.6275 72.1063 31.1221 70.6543 32.0283C67.9364 33.7246 67.4582 33.7323 67.3789 33.7441C67.2953 33.7567 67.2107 33.7637 67.126 33.7637C66.8548 33.7637 66.5863 33.6989 66.3428 33.5742C66.0087 33.4032 61.65 31.1351 57.3867 27.2627C53.1033 23.372 49.0625 17.9968 49.0625 11.6143C49.0625 11.5948 49.0627 11.5735 49.0635 11.5488L49.0645 11.5381V11.5283C49.0867 8.52714 50.2581 5.66824 52.2617 3.66992C54.1188 1.81779 56.5805 0.799805 59.2021 0.799805ZM59.208 4.23926C57.0213 4.23926 55.5391 5.25828 54.6904 6.10449C53.2855 7.50565 52.5029 9.518 52.5029 11.6143C52.5029 11.6314 52.5024 11.6488 52.502 11.666V11.6934C52.5408 17.2932 56.7028 22.0613 60.0107 24.9922C62.6353 27.3177 65.2952 29.0073 66.7549 29.8652L67.1533 30.0996L67.5547 29.8721C69.0243 29.0379 71.8077 27.3063 74.5635 24.7725C79.2677 20.447 81.7616 15.8053 81.7617 10.9756C81.7617 7.2594 78.7346 4.23926 75.0156 4.23926C72.2487 4.23945 69.7229 5.96609 68.7236 8.54395C68.4671 9.2057 67.83 9.64258 67.1201 9.64258C66.4105 9.64247 65.7733 9.2058 65.5166 8.54395C64.5171 5.9661 61.9917 4.2393 59.2246 4.23926H59.208Z" fill="white" stroke="#191B19" stroke-width="1.6"/>
</svg>
