<svg width="90" height="90" viewBox="0 0 90 90" fill="none" xmlns="http://www.w3.org/2000/svg">
<path d="M39.6503 15.9492C42.025 14.9651 44.6388 14.7078 47.16 15.209C49.6812 15.7102 51.9975 16.9482 53.8153 18.7656C55.633 20.5831 56.8713 22.8989 57.3729 25.4199C57.8745 27.9408 57.6171 30.554 56.6337 32.9287C55.6501 35.3036 53.9838 37.3335 51.8466 38.7617C49.7092 40.1899 47.1964 40.9521 44.6259 40.9521C41.1806 40.9484 37.8777 39.5785 35.4413 37.1426C33.0049 34.7067 31.6342 31.4042 31.6298 27.959C31.6292 25.3884 32.3905 22.8749 33.8182 20.7373C35.246 18.5998 37.2756 16.9333 39.6503 15.9492ZM44.6249 18.7871C42.194 18.7904 39.8634 19.7578 38.1444 21.4766C36.4254 23.1956 35.4573 25.5269 35.454 27.958V27.959C35.454 29.7729 35.9921 31.5464 36.9999 33.0547C38.0077 34.5629 39.4402 35.7385 41.1161 36.4326C42.7919 37.1267 44.6359 37.3079 46.4149 36.9541C48.194 36.6002 49.8285 35.727 51.1112 34.4443C52.3939 33.1617 53.2671 31.5272 53.621 29.748C53.9748 27.969 53.7936 26.125 53.0995 24.4492C52.4053 22.7734 51.2298 21.3408 49.7216 20.333C48.2133 19.3252 46.4398 18.7871 44.6259 18.7871H44.6249Z" fill="white" stroke="#191B19" stroke-width="1.8"/>
<path d="M14.629 30.291C16.4173 29.5503 18.3848 29.3558 20.2833 29.7334C22.1819 30.1111 23.9262 31.0433 25.295 32.4121C26.6638 33.7809 27.596 35.5252 27.9737 37.4238C28.3513 39.3223 28.1568 41.2898 27.4161 43.0781C26.6753 44.8665 25.4211 46.3952 23.8116 47.4707C22.202 48.5462 20.3099 49.1201 18.3741 49.1201C15.7783 49.1201 13.2887 48.0894 11.4532 46.2539C9.61768 44.4184 8.58698 41.9288 8.58698 39.333C8.58698 37.3972 9.16093 35.5051 10.2364 33.8955C11.3119 32.286 12.8406 31.0318 14.629 30.291ZM18.3741 33.3701C16.7927 33.3701 15.2765 33.999 14.1583 35.1172C13.0401 36.2354 12.4112 37.7517 12.4112 39.333C12.4112 40.5122 12.761 41.665 13.4161 42.6455C14.0712 43.6259 15.0025 44.3905 16.0919 44.8418C17.1813 45.2931 18.3806 45.4107 19.5372 45.1807C20.6938 44.9506 21.756 44.3827 22.5899 43.5488C23.4238 42.715 23.9917 41.6527 24.2217 40.4961C24.4518 39.3395 24.3341 38.1403 23.8829 37.0508C23.4316 35.9614 22.667 35.0301 21.6866 34.375C20.7061 33.7199 19.5533 33.3701 18.3741 33.3701Z" fill="white" stroke="#191B19" stroke-width="1.8"/>
<path d="M67.1299 30.291C68.9182 29.5503 70.8857 29.3558 72.7842 29.7334C74.6828 30.1111 76.4271 31.0433 77.7959 32.4121C79.1647 33.7809 80.097 35.5252 80.4746 37.4238C80.8522 39.3223 80.6577 41.2898 79.917 43.0781C79.1762 44.8665 77.922 46.3952 76.3125 47.4707C74.703 48.5462 72.8108 49.1201 70.875 49.1201C68.2792 49.1201 65.7896 48.0894 63.9541 46.2539C62.1186 44.4184 61.0879 41.9288 61.0879 39.333C61.0879 37.3972 61.6618 35.5051 62.7373 33.8955C63.8128 32.286 65.3415 31.0318 67.1299 30.291ZM70.875 33.3701C69.2937 33.3701 67.7774 33.999 66.6592 35.1172C65.541 36.2354 64.9121 37.7517 64.9121 39.333C64.9121 40.5122 65.2619 41.665 65.917 42.6455C66.5721 43.6259 67.5034 44.3905 68.5928 44.8418C69.6823 45.2931 70.8815 45.4107 72.0381 45.1807C73.1947 44.9506 74.2569 44.3827 75.0908 43.5488C75.9247 42.715 76.4926 41.6527 76.7227 40.4961C76.9527 39.3395 76.8351 38.1403 76.3838 37.0508C75.9325 35.9614 75.1679 35.0301 74.1875 34.375C73.207 33.7199 72.0542 33.3701 70.875 33.3701Z" fill="white" stroke="#191B19" stroke-width="1.8"/>
<path d="M22.0869 72.9609C22.0826 69.4812 22.7401 66.0322 24.0234 62.7979L24.3135 62.0664L23.627 61.6807C22.1394 60.8454 20.4647 60.3999 18.7588 60.3867H18.7217L18.6846 60.3896C15.5175 60.6265 12.5716 62.1025 10.4854 64.4971C8.52952 66.742 7.47634 69.6246 7.5166 72.5879L7.53809 73.125C7.53804 73.6322 7.33617 74.1189 6.97754 74.4775C6.61891 74.836 6.13208 75.0371 5.625 75.0371C5.1181 75.037 4.63196 74.8359 4.27344 74.4775C3.91481 74.1189 3.71293 73.6322 3.71289 73.125V73.1055L3.71191 73.0869C3.534 68.8988 5.02077 64.81 7.84668 61.7139C10.6668 58.6241 14.5923 56.7721 18.7695 56.5615C21.077 56.5808 23.3435 57.1743 25.3652 58.2871L26.1074 58.6953L26.5605 57.9795C28.5342 54.8548 31.2548 52.2707 34.4766 50.46C37.6939 48.6517 41.31 47.6704 45 47.6064C48.6903 47.6703 52.3068 48.6516 55.5244 50.46C58.7462 52.2707 61.4667 54.8549 63.4404 57.9795L63.8926 58.6953L64.6357 58.2871C66.6572 57.1744 68.9233 56.5809 71.2305 56.5615C75.4081 56.7719 79.334 58.6239 82.1543 61.7139C84.9802 64.81 86.467 68.8988 86.2891 73.0869L86.2881 73.1055V73.125C86.288 73.6322 86.0862 74.1189 85.7275 74.4775C85.3689 74.836 84.8821 75.0371 84.375 75.0371C83.8681 75.037 83.382 74.8359 83.0234 74.4775C82.7095 74.1636 82.5161 73.7514 82.4727 73.3135L82.4629 73.125C82.6461 69.9747 81.5895 66.8775 79.5156 64.4971C77.4294 62.1025 74.4834 60.6265 71.3164 60.3896L71.2793 60.3867H71.2422C69.5361 60.3999 67.8607 60.8452 66.373 61.6807L65.6875 62.0664L65.9775 62.7979C67.2609 66.0322 67.9183 69.4813 67.9141 72.9609V72.9619C67.914 73.4691 67.7121 73.9558 67.3535 74.3145C66.9949 74.6729 66.5081 74.874 66.001 74.874C65.4941 74.8739 65.0079 74.6728 64.6494 74.3145C64.2908 73.9558 64.0889 73.4691 64.0889 72.9619C64.0889 61.1982 55.6325 51.4316 45 51.4316C34.3678 51.4319 25.9121 61.1984 25.9121 72.9619C25.9121 73.4691 25.7102 73.9558 25.3516 74.3145C24.993 74.6728 24.5069 74.8739 24 74.874C23.4929 74.874 23.0061 74.6729 22.6475 74.3145C22.2888 73.9558 22.087 73.4691 22.0869 72.9619V72.9609Z" fill="white" stroke="#191B19" stroke-width="1.8"/>
</svg>
