<svg width="23" height="22" viewBox="0 0 23 22" fill="none" xmlns="http://www.w3.org/2000/svg">
<path d="M11.3844 5.32813C14.4782 5.32813 17.0317 7.8817 17.0317 10.9754C17.0317 14.1183 14.4782 16.6228 11.3844 16.6228C8.24156 16.6228 5.7371 14.1183 5.7371 10.9754C5.7371 7.8817 8.24156 5.32813 11.3844 5.32813ZM11.3844 14.6585C13.3978 14.6585 15.0183 13.0379 15.0183 10.9754C15.0183 8.96205 13.3978 7.34152 11.3844 7.34152C9.32192 7.34152 7.70138 8.96205 7.70138 10.9754C7.70138 13.0379 9.37102 14.6585 11.3844 14.6585ZM18.5541 5.1317C18.5541 5.8683 17.9648 6.45759 17.2282 6.45759C16.4916 6.45759 15.9023 5.8683 15.9023 5.1317C15.9023 4.39509 16.4916 3.8058 17.2282 3.8058C17.9648 3.8058 18.5541 4.39509 18.5541 5.1317ZM22.2862 6.45759C22.3844 8.27455 22.3844 13.7254 22.2862 15.5424C22.188 17.3103 21.7951 18.8326 20.5183 20.1585C19.2416 21.4353 17.6701 21.8281 15.9023 21.9263C14.0853 22.0246 8.63442 22.0246 6.81745 21.9263C5.0496 21.8281 3.52727 21.4353 2.20138 20.1585C0.924595 18.8326 0.531738 17.3103 0.433524 15.5424C0.33531 13.7254 0.33531 8.27455 0.433524 6.45759C0.531738 4.68973 0.924595 3.1183 2.20138 1.84152C3.52727 0.564732 5.0496 0.171875 6.81745 0.0736607C8.63442 -0.0245536 14.0853 -0.0245536 15.9023 0.0736607C17.6701 0.171875 19.2416 0.564732 20.5183 1.84152C21.7951 3.1183 22.188 4.68973 22.2862 6.45759ZM19.9291 17.4576C20.5183 16.0335 20.371 12.596 20.371 10.9754C20.371 9.40402 20.5183 5.96652 19.9291 4.4933C19.5362 3.56027 18.7996 2.77455 17.8666 2.4308C16.3933 1.84152 12.9558 1.98884 11.3844 1.98884C9.76388 1.98884 6.32638 1.84152 4.90227 2.4308C3.92013 2.82366 3.18352 3.56027 2.79067 4.4933C2.20138 5.96652 2.3487 9.40402 2.3487 10.9754C2.3487 12.596 2.20138 16.0335 2.79067 17.4576C3.18352 18.4397 3.92013 19.1763 4.90227 19.5692C6.32638 20.1585 9.76388 20.0112 11.3844 20.0112C12.9558 20.0112 16.3933 20.1585 17.8666 19.5692C18.7996 19.1763 19.5853 18.4397 19.9291 17.4576Z" fill="#F9FAFB"/>
</svg>
