<svg width="66" height="66" viewBox="0 0 66 66" fill="none" xmlns="http://www.w3.org/2000/svg">
<path fill-rule="evenodd" clip-rule="evenodd" d="M56.7442 44.475C56.3816 44.4771 56.0277 44.5865 55.7271 44.7892C55.4265 44.992 55.1926 45.2792 55.0548 45.6146C54.917 45.9501 54.8816 46.3187 54.9528 46.6743C55.0241 47.0298 55.1989 47.3563 55.4553 47.6127C55.7117 47.8691 56.0383 48.044 56.3938 48.1152C56.7493 48.1865 57.118 48.151 57.4534 48.0132C57.7889 47.8755 58.076 47.6416 58.2788 47.341C58.4816 47.0403 58.591 46.6865 58.5931 46.3239C58.595 46.0805 58.5484 45.8393 58.4562 45.6141C58.3639 45.389 58.2278 45.1844 58.0557 45.0123C57.8837 44.8403 57.6791 44.7042 57.4539 44.6119C57.2288 44.5196 56.9875 44.4731 56.7442 44.475ZM49.7285 44.475C49.3649 44.4728 49.0089 44.5784 48.7054 44.7786C48.4019 44.9788 48.1646 45.2644 48.0235 45.5995C47.8824 45.9345 47.8438 46.3038 47.9126 46.6608C47.9813 47.0178 48.1544 47.3464 48.41 47.605C48.6655 47.8635 48.992 48.0406 49.3481 48.1136C49.7042 48.1866 50.074 48.1524 50.4107 48.0153C50.7474 47.8782 51.0359 47.6443 51.2396 47.3432C51.4434 47.0421 51.5533 46.6874 51.5555 46.3239C51.5574 45.8367 51.3662 45.3687 51.0238 45.0222C50.6814 44.6756 50.2156 44.4789 49.7285 44.475ZM61.3081 46.7695C61.3081 44.6287 60.4577 42.5757 58.944 41.0619C57.4302 39.5482 55.3772 38.6978 53.2364 38.6978C51.0956 38.6978 49.0426 39.5482 47.5288 41.0619C46.0151 42.5757 45.1647 44.6287 45.1647 46.7695C45.1597 47.8833 45.3888 48.9858 45.8369 50.0055C46.2851 51.0252 46.9425 51.9395 47.7664 52.689C47.9857 52.8912 48.1294 53.1622 48.174 53.4572C48.2185 53.7521 48.1611 54.0535 48.0113 54.3114L47.6203 54.9946L49.8891 54.3808C50.1407 54.3142 50.4062 54.3232 50.6527 54.4066C51.8662 54.8148 53.1593 54.9288 54.4254 54.7391C55.6916 54.5495 56.8945 54.0616 57.9351 53.3158C58.9757 52.5699 59.8241 51.5874 60.4105 50.4493C60.9968 49.3112 61.3043 48.05 61.3075 46.7698L61.3081 46.7695ZM63.9391 46.7695C63.9362 48.4329 63.5458 50.0727 62.799 51.559C62.0521 53.0453 60.9692 54.3371 59.6363 55.3322C58.3033 56.3272 56.7569 56.998 55.1196 57.2914C53.4823 57.5849 51.7992 57.4929 50.2036 57.0227L45.2378 58.3601C45.1256 58.3893 45.0101 58.404 44.8942 58.4039C44.6633 58.4042 44.4363 58.3435 44.2363 58.228C44.0363 58.1125 43.8703 57.9464 43.755 57.7462C43.6397 57.5461 43.5793 57.3191 43.5798 57.0881C43.5803 56.8572 43.6417 56.6304 43.7578 56.4308L45.234 53.8655C43.4844 51.9173 42.5219 49.3879 42.5337 46.7694C42.5337 43.9308 43.6613 41.2086 45.6684 39.2014C47.6756 37.1943 50.3979 36.0667 53.2364 36.0667C56.0749 36.0667 58.7972 37.1943 60.8043 39.2014C62.8115 41.2086 63.9391 43.9308 63.9391 46.7694V46.7695ZM20.4049 46.3602C20.4049 46.1009 20.3318 46.0095 20.2624 45.9437C19.5462 45.2677 16.9738 45.4139 15.5926 45.4906C15.0554 45.5235 14.573 45.549 14.1821 45.549C13.9951 45.549 13.8104 45.5091 13.6401 45.4321C13.4698 45.3551 13.3179 45.2426 13.1944 45.1023C13.071 44.9619 12.9788 44.7969 12.9242 44.6182C12.8695 44.4394 12.8536 44.2511 12.8774 44.0657C12.987 43.2107 13.1258 42.4761 13.2501 41.833C13.6301 39.8453 13.7105 39.4215 12.5411 39.0158L11.0097 44.5809C11.0023 44.6067 10.9878 44.6284 10.9804 44.654V55.7732C20.3969 55.7586 20.4041 55.3932 20.4041 46.3604L20.4049 46.3602ZM8.35021 45.549H4.69186V55.773H8.34957L8.35021 45.549ZM23.0352 46.3605C23.0352 57.7356 21.5335 58.4042 9.74176 58.4042C9.72719 58.4042 9.71598 58.4006 9.70154 58.4006C9.69058 58.4006 9.67962 58.4042 9.66506 58.4042H3.37701C3.20429 58.4043 3.03324 58.3703 2.87364 58.3043C2.71405 58.2383 2.56902 58.1414 2.44686 58.0193C2.3247 57.8972 2.22779 57.7522 2.16167 57.5927C2.09555 57.4331 2.06152 57.2621 2.06152 57.0893V44.2338C2.06152 44.0611 2.09555 43.89 2.16167 43.7305C2.22779 43.5709 2.3247 43.4259 2.44686 43.3038C2.56902 43.1817 2.71405 43.0849 2.87364 43.0188C3.03324 42.9528 3.20429 42.9189 3.37701 42.9189H8.73693L10.3557 37.0359C10.4487 36.7018 10.6695 36.4177 10.9705 36.2454C11.2715 36.073 11.6282 36.0262 11.9635 36.1151C16.4543 37.3064 16.4214 39.2576 15.8331 42.327C15.8002 42.4946 15.7674 42.6705 15.7345 42.8495C17.9488 42.7289 20.598 42.6411 22.0669 44.0333C22.3825 44.3317 22.6318 44.6932 22.7986 45.0942C22.9654 45.4952 23.0461 45.9268 23.0352 46.361V46.3605ZM42.6024 11.8882C42.8325 11.8881 43.0584 11.8262 43.2565 11.7092L46.8411 9.63728C46.995 9.55329 47.1306 9.43935 47.2398 9.30218C47.3491 9.16501 47.4298 9.00738 47.4772 8.83856C47.5246 8.66974 47.5377 8.49314 47.5159 8.31916C47.494 8.14518 47.4375 7.97733 47.3498 7.82549C47.2621 7.67365 47.145 7.54088 47.0052 7.435C46.8654 7.32912 46.7059 7.25227 46.5359 7.20898C46.366 7.16568 46.1892 7.1568 46.0158 7.18287C45.8424 7.20895 45.6759 7.26944 45.5263 7.3608L41.9411 9.43284C41.6898 9.57766 41.4933 9.80151 41.3824 10.0695C41.2714 10.3376 41.2521 10.6348 41.3276 10.9149C41.403 11.195 41.5689 11.4423 41.7995 11.6184C42.03 11.7944 42.3123 11.8892 42.6024 11.8882ZM41.8676 19.9381L45.4485 22.01C45.5982 22.1013 45.7646 22.1618 45.938 22.1879C46.1114 22.214 46.2883 22.2051 46.4582 22.1618C46.6281 22.1185 46.7877 22.0416 46.9275 21.9358C47.0672 21.8299 47.1844 21.6971 47.2721 21.5453C47.3598 21.3934 47.4163 21.2256 47.4381 21.0516C47.46 20.8776 47.4468 20.701 47.3994 20.5322C47.352 20.3634 47.2713 20.2057 47.1621 20.0686C47.0529 19.9314 46.9173 19.8175 46.7634 19.7335L43.1833 17.6617C43.0336 17.5703 42.8671 17.5098 42.6937 17.4838C42.5204 17.4577 42.3435 17.4666 42.1736 17.5099C42.0037 17.5532 41.8441 17.63 41.7043 17.7359C41.5646 17.8418 41.4474 17.9745 41.3597 18.1264C41.272 18.2782 41.2155 18.4461 41.1937 18.6201C41.1718 18.794 41.185 18.9706 41.2324 19.1395C41.2798 19.3083 41.3605 19.4659 41.4697 19.6031C41.5789 19.7402 41.7145 19.8542 41.8684 19.9382L41.8676 19.9381ZM42.069 14.6952C42.069 15.0439 42.2075 15.3783 42.4541 15.6249C42.7007 15.8715 43.0351 16.01 43.3838 16.01H47.5239C47.8728 16.01 48.2074 15.8714 48.4541 15.6247C48.7008 15.378 48.8394 15.0434 48.8394 14.6945C48.8394 14.3456 48.7008 14.011 48.4541 13.7643C48.2074 13.5176 47.8728 13.379 47.5239 13.379H43.3845C43.2118 13.379 43.0408 13.4131 42.8813 13.4791C42.7218 13.5452 42.5768 13.6421 42.4547 13.7642C42.3326 13.8862 42.2358 14.0312 42.1697 14.1907C42.1036 14.3502 42.0696 14.5212 42.0696 14.6939L42.069 14.6952ZM19.7868 14.6952C19.7868 15.9741 20.7149 17.0557 21.8147 17.0557H26.4699V12.3158H21.8147C20.7149 12.3158 19.7868 13.4047 19.7868 14.6947V14.6952ZM35.8936 8.71663L29.1003 11.9432V17.4462L35.8936 20.6581V8.71663ZM26.4699 24.0823V19.6866H25.7391V24.0823C25.7408 24.1783 25.78 24.2699 25.8483 24.3375C25.9165 24.4051 26.0085 24.4433 26.1046 24.444C26.1994 24.4395 26.2893 24.4001 26.3567 24.3333C26.4242 24.2665 26.4645 24.1771 26.4699 24.0823ZM17.1594 14.6952C17.1594 11.9327 19.2459 9.68549 21.8146 9.68549H27.7231L36.6427 5.4468C36.843 5.35146 37.0643 5.30842 37.2857 5.32169C37.5072 5.33496 37.7217 5.40411 37.9093 5.52269C38.0968 5.64127 38.2512 5.80542 38.3582 5.99982C38.4651 6.19422 38.5211 6.41253 38.5208 6.63441V22.7371C38.5218 22.9589 38.4664 23.1772 38.3599 23.3717C38.2534 23.5662 38.0993 23.7305 37.912 23.8492C37.7247 23.9679 37.5103 24.0371 37.289 24.0503C37.0676 24.0636 36.8465 24.0204 36.6464 23.9249L29.1009 20.3542V24.0812C29.1009 24.8759 28.7852 25.638 28.2233 26.1999C27.6614 26.7618 26.8993 27.0775 26.1046 27.0775C25.3099 27.0775 24.5478 26.7618 23.9859 26.1999C23.424 25.638 23.1083 24.8759 23.1083 24.0812V19.6855H21.8147C19.2459 19.6855 17.1595 17.4456 17.1595 14.6941L17.1594 14.6952ZM41.2359 56.4529C38.6691 57.516 35.9168 58.0587 33.1386 58.0497C29.7477 58.0547 26.4049 57.2478 23.3897 55.6965C23.2361 55.6171 23.0685 55.5687 22.8962 55.5541C22.7239 55.5395 22.5505 55.5589 22.3857 55.6114C22.053 55.7172 21.776 55.9509 21.6156 56.2611C21.4552 56.5712 21.4246 56.9323 21.5305 57.265C21.6364 57.5977 21.8701 57.8747 22.1802 58.0351C25.5704 59.7764 29.3273 60.6834 33.1386 60.6807C36.2642 60.6905 39.3606 60.0793 42.248 58.8828C42.4076 58.8164 42.5525 58.7191 42.6745 58.5967C42.7964 58.4742 42.8931 58.3289 42.9589 58.1691C43.0247 58.0093 43.0584 57.8381 43.0581 57.6653C43.0577 57.4924 43.0234 57.3213 42.9569 57.1618C42.8904 57.0022 42.7932 56.8573 42.6707 56.7354C42.5483 56.6134 42.403 56.5168 42.2432 56.4509C42.0834 56.3851 41.9122 56.3514 41.7393 56.3517C41.5665 56.3521 41.3954 56.3865 41.2359 56.4529ZM10.3921 35.6504C10.4357 35.6565 10.4797 35.659 10.5237 35.6578C10.8492 35.6578 11.1631 35.5372 11.4047 35.3192C11.6463 35.1011 11.7985 34.8013 11.8318 34.4775C12.3487 29.4439 14.6278 24.755 18.2666 21.2388C18.5176 20.9966 18.662 20.6645 18.6682 20.3157C18.6744 19.9669 18.5417 19.63 18.2995 19.379C18.0572 19.128 17.7251 18.9835 17.3763 18.9774C17.0275 18.9712 16.6906 19.1038 16.4396 19.3461C12.3527 23.2932 9.7938 28.5586 9.21556 34.2108C9.19812 34.3826 9.21473 34.5562 9.26444 34.7216C9.31415 34.8869 9.39599 35.0409 9.50527 35.1746C9.61455 35.3083 9.74913 35.4192 9.9013 35.5008C10.0535 35.5825 10.2202 35.6333 10.3921 35.6504ZM49.1284 20.4533C49.3874 20.2202 49.7282 20.0993 50.0762 20.1171C50.4241 20.1349 50.7508 20.29 50.9847 20.5483C54.3851 24.3077 56.5006 29.0518 57.0248 34.0938C57.0614 34.4407 56.9588 34.7879 56.7396 35.0592C56.5203 35.3305 56.2024 35.5037 55.8555 35.5407C55.8079 35.5443 55.7605 35.5481 55.7167 35.5481C55.3921 35.5471 55.0793 35.4266 54.838 35.2096C54.5967 34.9925 54.4438 34.6942 54.4085 34.3716C53.9416 29.8818 52.0577 25.6573 49.0298 22.3095C48.9142 22.1813 48.8251 22.0315 48.7675 21.8687C48.7099 21.7059 48.6849 21.5334 48.6941 21.361C48.7033 21.1885 48.7463 21.0196 48.8209 20.8639C48.8954 20.7081 48.9999 20.5686 49.1284 20.4533Z" fill="#26E45C"/>
</svg>
