<svg width="65" height="65" viewBox="0 0 65 65" fill="none" xmlns="http://www.w3.org/2000/svg">
<path fill-rule="evenodd" clip-rule="evenodd" d="M38.8768 4.47573C36.8306 4.40531 34.8562 5.15687 33.4912 6.45417C30.5879 9.2126 30.3211 14.7281 33.2218 20.2464C35.1135 24.0786 39.9208 27.957 43.963 30.5164C44.4058 30.7967 44.9692 30.7967 45.412 30.5164C49.4555 27.9556 54.2682 24.0719 56.1614 20.2301C59.0539 14.7214 58.7857 9.21125 55.8838 6.45417C53.1538 3.85958 47.9849 3.44385 44.6875 7.42917C43.0381 5.43719 40.9229 4.54479 38.8768 4.47573ZM38.2891 7.20167C40.1537 7.11229 42.2121 8.07781 43.4891 10.5031C43.7233 10.9486 44.1838 11.2276 44.6875 11.2276C45.1912 11.2276 45.6517 10.9486 45.8859 10.5031C47.928 6.62208 51.9756 6.47854 54.0191 8.41906C54.8302 9.19094 55.292 10.2824 55.4545 11.5472C55.7321 13.7152 55.1417 16.3491 53.7509 18.9924C53.7442 19.0046 53.7401 19.0154 53.736 19.0276C52.1435 22.2681 48.1799 25.4694 44.6875 27.7606C41.1965 25.4694 37.2315 22.2681 35.639 19.0276C35.6335 19.0154 35.6295 19.0046 35.6241 18.9924C34.2333 16.3491 33.6429 13.7152 33.9205 11.5472C34.083 10.2824 34.5448 9.19094 35.3559 8.41906C36.1224 7.69052 37.1719 7.25583 38.2891 7.20167ZM18.1702 18.0594C16.9718 18.0946 15.8329 18.5685 15.0313 19.3309C13.2681 21.0074 13.0014 24.3481 14.7577 27.697C15.8546 29.911 18.6103 32.1671 20.9422 33.6431C21.3836 33.9234 21.9497 33.9234 22.3911 33.6431C24.723 32.1671 27.4787 29.911 28.5756 27.697C30.332 24.3481 30.0652 21.006 28.3021 19.3309C26.6974 17.8061 23.7467 17.4365 21.6667 19.4217C20.6267 18.4291 19.3686 18.0242 18.1702 18.0594ZM18.1865 20.784C19.003 20.7677 19.9049 21.2281 20.4682 22.2993C20.7025 22.7434 21.1643 23.021 21.6667 23.021C22.1704 23.021 22.6308 22.7434 22.8651 22.2993C23.767 20.5849 25.5328 20.4359 26.4347 21.2945C26.9005 21.7359 27.0833 22.4171 27.0833 23.1903C27.0833 24.1843 26.7692 25.3164 26.1706 26.4511C26.1652 26.4633 26.1584 26.4742 26.153 26.4864C25.3581 28.1032 23.4366 29.6876 21.6667 30.882C19.8968 29.6876 17.9766 28.1032 17.1817 26.4864C17.1762 26.4742 17.1681 26.4633 17.1627 26.4511C16.5642 25.3164 16.25 24.1843 16.25 23.1903C16.25 22.4171 16.4328 21.7359 16.8986 21.2945C17.2358 20.9722 17.6962 20.7934 18.1865 20.784ZM12.1875 36.5627C9.945 36.5627 8.125 38.3841 8.125 40.6252V56.8752C8.125 59.1164 9.945 60.9377 12.1875 60.9377C13.9533 60.9377 15.4524 59.8043 16.0117 58.2294H34.928C38.174 58.2294 41.3292 57.1704 43.9183 55.2109C48.3898 51.8255 55.4098 46.5131 55.4098 46.5131C55.4612 46.4725 55.5073 46.4346 55.552 46.3885C57.2162 44.7121 57.3151 41.8886 55.7673 40.0862C54.1843 38.2419 51.545 38.097 49.7941 39.7179C49.7954 39.7166 36.1928 47.6235 36.1928 47.6235H28.9291C28.4375 47.6235 28.0935 47.1415 28.0935 46.6079C28.0935 46.1448 28.4199 45.5923 28.9291 45.5923H35.1C37.4265 45.5923 39.371 43.5976 39.371 41.0775C39.371 38.5574 37.4265 36.5627 35.1 36.5627H25.3378C25.1455 36.5627 24.9546 36.606 24.7799 36.6846L16.2473 40.5561C16.2107 38.3461 14.407 36.5627 12.1875 36.5627ZM12.1875 39.271C12.935 39.271 13.5417 39.8791 13.5417 40.6252V56.8752C13.5417 57.6214 12.935 58.2294 12.1875 58.2294C11.44 58.2294 10.8333 57.6214 10.8333 56.8752V40.6252C10.8333 39.8791 11.44 39.271 12.1875 39.271ZM25.6344 39.271H35.1C35.9937 39.271 36.6627 40.1093 36.6627 41.0775C36.6627 42.0457 35.9937 42.884 35.1 42.884H28.9291C26.933 42.884 25.3852 44.7987 25.3852 46.6079C25.3852 48.6933 27.0034 50.3319 28.9291 50.3319H36.5571C36.7954 50.3319 37.0324 50.2669 37.2396 50.1464L51.2972 41.9794C51.4001 41.9198 51.4963 41.8453 51.5802 41.76C52.1896 41.1452 53.147 41.1899 53.7144 41.8494C54.3414 42.5793 54.3251 43.71 53.69 44.4155C53.6859 44.4209 42.2839 53.051 42.2839 53.051C40.1659 54.6544 37.5835 55.521 34.928 55.521H16.25V43.5312L25.6344 39.271Z" fill="#26E45C"/>
</svg>
