<svg width="64" height="64" viewBox="0 0 64 64" fill="none" xmlns="http://www.w3.org/2000/svg">
<path fill-rule="evenodd" clip-rule="evenodd" d="M28.5317 33.8574C26.6697 33.8574 25.1582 35.3692 25.1582 37.2309C25.1582 39.0928 26.6697 40.6045 28.5317 40.6045C30.3936 40.6045 31.9051 39.0928 31.9051 37.2309C31.9051 35.3692 30.3936 33.8574 28.5317 33.8574ZM28.5317 36.1064C29.1523 36.1064 29.6562 36.6103 29.6562 37.2309C29.6562 37.8517 29.1523 38.3555 28.5317 38.3555C27.9111 38.3555 27.4072 37.8517 27.4072 37.2309C27.4072 36.6103 27.9111 36.1064 28.5317 36.1064Z" fill="#26E45C"/>
<path fill-rule="evenodd" clip-rule="evenodd" d="M28.888 22.2273L39.9212 2.1145C40.4102 1.22325 41.2331 0.562628 42.209 0.278253C43.185 -0.00637156 44.2341 0.108503 45.1254 0.597503H45.1255C46.7645 1.49663 47.5151 3.4475 46.9012 5.21338L36.2948 35.7294L42.7676 47.5288C45.5602 47.6215 48.2342 49.143 49.6741 51.7678C50.8038 53.8273 50.9526 56.1626 50.2774 58.2343C50.8025 58.846 51.4273 59.4223 52.1415 59.9346C53.3871 60.8284 54.7297 61.4026 56.0084 61.6533C56.3795 61.726 56.6881 61.9826 56.8275 62.3343C56.9669 62.6859 56.9179 63.0843 56.6973 63.3916C56.6925 63.3984 56.6876 63.4051 56.6827 63.4118C56.4297 63.7645 55.9946 63.9376 55.5685 63.8551C53.9963 63.543 52.3525 62.854 50.8305 61.7619C50.2366 61.3359 49.6951 60.8726 49.208 60.3836C48.5111 61.3833 47.579 62.2419 46.4384 62.8675C42.4825 65.0376 37.5089 63.5878 35.3387 59.6318C33.9212 57.0478 34.0482 54.0295 35.4091 51.6426L32.2096 45.8101L28.888 45.0511L25.5663 45.8101L22.3668 51.6426C23.7276 54.0295 23.8547 57.0478 22.4371 59.6318C20.267 63.5878 15.2935 65.0376 11.3375 62.8675C7.3816 60.6974 5.9316 55.7239 8.10172 51.7678C9.54172 49.143 12.2157 47.6215 15.0083 47.5288L21.4811 35.7294L10.8746 5.21338C10.261 3.4475 11.0115 1.49663 12.6505 0.597503C13.5417 0.108503 14.5908 -0.00637156 15.5668 0.278253C16.5427 0.562628 17.3658 1.22325 17.8547 2.1145L28.888 22.2273ZM18.1198 50.5039C20.9875 52.0771 22.0386 55.6824 20.4654 58.5501C18.8924 61.4179 15.2868 62.4689 12.4192 60.8958C9.55147 59.3226 8.50047 55.7173 10.0736 52.8495C11.6467 49.9818 15.2521 48.9309 18.1198 50.5039ZM39.6561 50.5039C36.7884 52.0771 35.7375 55.6824 37.3105 58.5501C38.8836 61.4179 42.4891 62.4689 45.3567 60.8958C48.2246 59.3226 49.2755 55.7173 47.7024 52.8495C46.1292 49.9818 42.5238 48.9309 39.6561 50.5039ZM20.853 49.7261L24.0806 43.8428C24.0806 43.8428 28.8406 42.755 30.8356 42.2991C31.3727 42.1764 31.8087 41.7858 31.9896 41.2654C33.7222 36.2806 42.6811 10.5049 44.777 4.475C45.0303 3.746 44.7205 2.9405 44.0438 2.56925H44.0437C43.6754 2.36713 43.2417 2.31975 42.8385 2.43725C42.4351 2.55488 42.095 2.82788 41.893 3.19613L40.5264 5.6875L41.2606 5.96838C41.8404 6.19 42.131 6.84063 41.9092 7.42025C41.6876 8 41.037 8.29075 40.4574 8.069L39.4345 7.67775L38.3461 9.66188L39.6812 10.1725C40.2608 10.3943 40.5515 11.0449 40.3298 11.6244C40.1081 12.2041 39.4575 12.4948 38.878 12.273L37.2543 11.6521L36.166 13.6361L38.092 14.3728C38.6716 14.5943 38.9622 15.2449 38.7406 15.8246C38.5188 16.4043 37.8682 16.6949 37.2886 16.4733L35.0742 15.6264L33.9855 17.6109L36.5057 18.5746C37.0855 18.7963 37.376 19.4469 37.1542 20.0266C36.9326 20.6063 36.282 20.897 35.7023 20.6753L32.8937 19.6011L31.8017 21.5919L34.9272 22.7871C35.507 23.0089 35.7976 23.6594 35.576 24.2391C35.3543 24.8188 34.7037 25.1095 34.124 24.8878L30.7098 23.5821L17.4188 47.8105C18.0271 47.9766 18.6251 48.216 19.2015 48.5321C19.8133 48.8679 20.3655 49.2706 20.853 49.7261ZM35.2998 38.5918L34.114 42.0038C33.8843 42.6645 33.4838 43.2383 32.9668 43.6763L33.6955 43.8428L36.9228 49.7261C37.4103 49.2706 37.9625 48.8679 38.5745 48.5321C39.1508 48.216 39.7489 47.9766 40.357 47.8105L35.2998 38.5918ZM27.6055 24.5653L15.883 3.19613C15.6809 2.82788 15.3407 2.55488 14.9375 2.43725C14.5341 2.31975 14.1006 2.36713 13.7322 2.56925C13.0556 2.9405 12.7456 3.746 12.999 4.475L22.9387 33.0724L27.6055 24.5653Z" fill="#26E45C"/>
</svg>
