<svg width="26" height="18" viewBox="0 0 26 18" fill="none" xmlns="http://www.w3.org/2000/svg">
<path d="M24.8114 2.85938C25.3599 4.82813 25.3599 9.04688 25.3599 9.04688C25.3599 9.04688 25.3599 13.2188 24.8114 15.2344C24.5372 16.3594 23.6688 17.2031 22.6176 17.4844C20.6524 18 12.8827 18 12.8827 18C12.8827 18 5.06736 18 3.10209 17.4844C2.05091 17.2031 1.18253 16.3594 0.908309 15.2344C0.359863 13.2188 0.359863 9.04688 0.359863 9.04688C0.359863 9.04688 0.359863 4.82813 0.908309 2.85938C1.18253 1.73438 2.05091 0.84375 3.10209 0.5625C5.06736 0 12.8827 0 12.8827 0C12.8827 0 20.6524 0 22.6176 0.5625C23.6688 0.84375 24.5372 1.73438 24.8114 2.85938ZM10.3233 12.8438L16.8132 9.04688L10.3233 5.25V12.8438Z" fill="#F9FAFB"/>
</svg>
