<svg width="176" height="70" viewBox="0 0 176 70" fill="none" xmlns="http://www.w3.org/2000/svg">
<path d="M20.0055 50.449C20.1329 51.1083 20.0859 51.6319 19.8643 52.0197C19.6815 52.3577 19.4128 52.5488 19.0583 52.5932C18.0832 52.7152 17.3713 52.6016 16.9225 52.2526C16.4681 51.8593 16.0886 51.3441 15.7838 50.707C15.3682 49.5436 14.9886 48.3082 14.645 47.0007C14.3014 45.6933 14.0049 44.4024 13.7555 43.1282C12.099 43.5605 10.5976 43.9733 9.25136 44.3668C7.89958 44.716 6.98546 44.9654 6.50902 45.115C5.77219 45.3422 5.0021 45.3035 4.19874 44.9988C3.43416 44.6443 2.96596 44.1402 2.79416 43.4865C2.71654 42.866 3.00736 42.3119 3.6666 41.8243C4.37016 41.3312 5.01834 40.935 5.61111 40.6358C6.4255 40.3088 7.48642 39.9736 8.79388 39.63C10.0958 39.242 11.5113 38.8624 13.0404 38.4911C12.68 35.9703 12.4471 33.7487 12.3417 31.8263C12.2751 29.8539 12.311 28.5215 12.4494 27.829C12.4992 26.7874 12.8509 26.1807 13.5047 26.0089C14.1528 25.7928 14.6459 25.7761 14.9839 25.9589C15.3717 26.1805 15.7236 26.4741 16.0394 26.8397C16.394 27.1555 16.563 27.427 16.5464 27.6541C16.5798 29.3605 16.6769 31.0364 16.8377 32.6818C17.0373 34.2774 17.2618 35.8924 17.5112 37.5267C19.0514 37.244 20.55 36.989 22.0071 36.7618C23.4641 36.5345 24.7965 36.3903 26.0043 36.3293C27.4337 36.2405 28.1567 36.8028 28.1734 38.0161C28.1956 38.5535 27.9214 39.0604 27.3508 39.5369C26.819 39.9636 26.1791 40.2462 25.4312 40.3848C24.4229 40.6009 23.3066 40.8531 22.0822 41.1413C20.8523 41.3852 19.5615 41.6817 18.2097 42.0308C18.4757 43.438 18.764 44.8424 19.0743 46.2441C19.3847 47.6457 19.6951 49.0474 20.0055 50.449ZM43.376 24.2305C44.185 26.0199 44.3818 27.7734 43.9665 29.4909C43.7228 30.4217 43.3794 31.455 42.9362 32.5907C42.4931 33.7265 41.9863 34.8928 41.4158 36.0895C40.8397 37.2419 40.2387 38.375 39.6127 39.4886C38.9812 40.5579 38.4051 41.5303 37.8844 42.4057C38.6711 42.2172 39.6323 41.9845 40.768 41.7074C41.9425 41.3804 43.1392 41.0506 44.358 40.7181C45.6212 40.3801 46.8428 40.0697 48.0228 39.787C49.2416 39.4545 50.333 39.183 51.297 38.9723C51.779 38.867 52.3385 38.8421 52.9757 38.8974C53.6571 38.9472 54.1142 39.0026 54.3469 39.0635C54.6295 39.1632 54.7486 39.3959 54.7043 39.7615C54.6988 40.0773 54.6074 40.4264 54.4301 40.8087C54.2529 41.1909 54.0285 41.5566 53.7571 41.9057C53.5244 42.2049 53.3195 42.3656 53.1422 42.3877C51.7516 42.7867 50.2087 43.2273 48.5134 43.7095C46.8625 44.1861 45.1894 44.6655 43.4941 45.1476C41.7989 45.6297 40.1258 46.1091 38.4748 46.5857C36.8627 47.0125 35.4001 47.3755 34.0871 47.6748C33.4777 47.841 32.9153 47.6638 32.4 47.143C31.9291 46.6168 31.6104 46.0489 31.4442 45.4395C31.4331 45.3509 31.4359 45.193 31.4525 44.9658C31.4691 44.7387 31.6906 44.3508 32.1172 43.8023C33.7181 41.4864 35.2498 38.9765 36.7121 36.2728C38.2133 33.5191 39.3183 30.8376 40.0273 28.2281C40.1159 27.8569 40.1186 27.5189 40.0355 27.2142C39.9468 26.8652 39.8304 26.6547 39.6864 26.5827C39.4426 26.4331 39.1434 26.3805 38.7889 26.4248C38.4731 26.4193 38.0963 26.4665 37.6587 26.5662C37.0437 26.6882 36.4149 26.8793 35.7723 27.1398C35.1296 27.4002 34.4898 27.6828 33.8527 27.9876C33.2599 28.2868 32.7142 28.6027 32.2156 28.9351C31.7115 29.2233 31.271 29.4809 30.8943 29.7081C30.3957 30.0406 29.9664 30.2068 29.6063 30.2068C29.2462 30.2069 28.9248 30.157 28.6423 30.0573C28.3985 29.9078 28.199 29.7527 28.0439 29.592C27.8887 29.4314 27.8056 29.3067 27.7945 29.2181C27.7225 29.002 27.7086 28.7111 27.7529 28.3455C27.7972 27.9798 27.8498 27.6807 27.9107 27.448C28.2486 26.9105 28.8054 26.3232 29.581 25.686C30.4008 25.0433 31.3426 24.4753 32.4063 23.9822C33.5088 23.4391 34.6694 23.0013 35.8882 22.6688C37.1514 22.3308 38.4367 22.17 39.7442 22.1865C40.614 22.3028 41.3426 22.5492 41.9299 22.9259C42.5615 23.2971 43.0435 23.7319 43.376 24.2305ZM59.2037 61.8862C58.8103 61.6203 58.6717 61.2325 58.788 60.7227C58.9043 60.213 59.029 59.7698 59.1619 59.3931C59.4776 58.3182 59.7434 57.2046 59.9594 56.0522C60.1698 54.8555 60.3054 53.6007 60.3663 52.2876C60.3828 51.7004 60.6321 51.174 61.1141 50.7086C61.5905 50.1989 62.2885 50.0215 63.2082 50.1766C63.585 50.3095 63.8177 50.5505 63.9064 50.8995C64.0338 51.1987 64.1225 51.5477 64.1724 51.9466C64.25 52.5671 64.2528 53.3095 64.1809 54.1737C64.1477 54.9882 64.0453 55.7887 63.8736 56.5755C63.7075 57.4065 63.4887 58.1766 63.2173 58.8858C62.9459 59.5949 62.6772 60.1462 62.4113 60.5396C61.9516 61.1823 61.4225 61.6311 60.8242 61.886C60.2757 62.1797 59.7356 62.1797 59.2037 61.8862ZM77.7233 32.6958C79.5128 32.9671 80.9644 33.5958 82.0781 34.5818C83.2305 35.518 83.9038 36.7617 84.0978 38.313C84.2808 39.7756 83.9429 41.2133 83.0843 42.6261C82.2202 43.9946 81.1316 45.1886 79.8187 46.2082C79.4918 46.4741 78.9738 46.8315 78.2647 47.2803C77.5501 47.6848 76.7662 48.0755 75.913 48.4523C75.0986 48.7792 74.2565 49.0646 73.3867 49.3085C72.5114 49.508 71.7247 49.5164 71.0266 49.3336C70.6554 49.245 70.2648 49.0013 69.8548 48.6024C69.4891 48.198 69.1566 47.6994 68.8574 47.1066C68.6025 46.5083 68.4307 45.8546 68.342 45.1454C68.2921 44.3864 68.4194 43.6053 68.7241 42.8019C69.3887 40.9182 70.1393 39.0012 70.9757 37.051C71.8121 35.1007 72.69 33.1228 73.6095 31.1171C72.7452 30.6851 71.9335 30.1339 71.1745 29.4636C70.4099 28.749 69.7671 27.9291 69.2463 27.0039C68.7254 26.0787 68.3513 25.0677 68.1241 23.9707C67.9356 22.8239 67.9632 21.6051 68.2069 20.3142C68.517 18.8349 69.3396 17.4941 70.6747 16.2918C72.0098 15.0894 73.7189 14.358 75.802 14.0974C76.7771 13.9754 77.7992 14.0501 78.8685 14.3215C79.9821 14.5874 80.9212 15.0776 81.6858 15.7922C82.4449 16.4625 82.9159 17.3489 83.0988 18.4514C83.3261 19.5483 83.088 20.8835 82.3845 22.457C81.5204 24.1856 80.6784 25.9115 79.8586 27.6346C79.0333 29.3133 78.2328 31.0115 77.4574 32.729L77.7233 32.6958ZM78.3705 21.136C79.1072 19.4684 78.9437 18.521 77.8799 18.2939C76.7331 18.1223 75.6057 18.2858 74.4977 18.7845C73.4284 19.2334 72.664 20.1393 72.2043 21.5022C72.1156 21.8734 72.0824 22.3277 72.1047 22.8651C72.1269 23.4025 72.2433 23.9732 72.4538 24.577C72.6644 25.1809 72.9858 25.7709 73.418 26.347C73.889 26.8733 74.4846 27.3165 75.2048 27.6765C75.6978 26.5795 76.2157 25.5019 76.7586 24.4437C77.2959 23.3411 77.8332 22.2386 78.3705 21.136ZM72.7548 44.796C73.1093 44.7517 73.6079 44.5993 74.2506 44.3388C74.8932 44.0784 75.5719 43.7459 76.2865 43.3414C77.0012 42.9369 77.7103 42.4881 78.4139 41.9949C79.1119 41.4575 79.6935 40.8896 80.1589 40.2912C80.5688 39.6097 80.3859 38.8673 79.6102 38.0641C78.8788 37.2553 77.8732 36.4132 76.5933 35.538C76.4991 35.5048 76.4271 35.4687 76.3773 35.43C76.3717 35.3856 76.344 35.3441 76.2941 35.3053C75.5851 36.8345 74.9481 38.3996 74.3832 40.0008C73.8127 41.5577 73.2699 43.1561 72.7548 44.796ZM102.885 32.3843C102.553 33.3261 102.051 34.3567 101.381 35.4758C100.705 36.5507 99.8964 37.6422 98.9546 38.7503C98.0517 39.8086 97.0545 40.8336 95.9632 41.8254C94.9106 42.7673 93.8414 43.5763 92.7556 44.2523C92.4232 44.4739 92.016 44.6374 91.534 44.7427C91.0465 44.8037 90.6337 44.7428 90.2958 44.56C89.6143 44.1501 89.2236 43.5462 89.1239 42.7484C89.0684 41.9451 89.3675 41.2775 90.0212 40.7456C91.2289 39.9643 92.42 39.0501 93.5944 38.0029C94.8132 36.9501 95.8518 35.8974 96.7105 34.8447C97.6079 33.7421 98.2865 32.6894 98.7462 31.6866C99.2448 30.6339 99.3998 29.7142 99.2114 28.9275C98.9731 28.102 98.5354 27.4815 97.8982 27.0661C97.261 26.6506 96.4909 26.4319 95.5879 26.4098C94.7291 26.3821 93.7568 26.5263 92.671 26.8422C91.5796 27.1137 90.5048 27.5183 89.4467 28.0558C89.1032 28.1887 88.7763 28.2747 88.4661 28.3135C88.1503 28.3079 87.865 28.1861 87.6101 27.9479C87.1945 27.5047 86.8621 27.0061 86.6127 26.4521C86.4077 25.8926 86.4797 25.3884 86.8287 24.9396C87.5211 24.3578 88.2745 23.7234 89.0889 23.0363C89.9032 22.3493 90.6456 21.6262 91.3159 20.8672C91.9862 20.1081 92.4958 19.3241 92.8448 18.5152C93.2325 17.6564 93.3045 16.7922 93.0606 15.9224C92.9719 15.5733 92.7143 15.313 92.2877 15.1413C91.9054 14.964 91.4428 14.8643 90.8998 14.8422C90.3513 14.7758 89.7946 14.8229 89.2295 14.9836C88.6588 15.1 88.1408 15.2774 87.6755 15.5156C87.4373 15.7705 87.1686 15.9617 86.8694 16.0891C86.5703 16.2166 86.2656 16.2997 85.9553 16.3385C85.6451 16.3773 85.3736 16.3662 85.1409 16.3053C84.9027 16.2001 84.7281 16.0644 84.6173 15.8982C84.4566 15.6932 84.3292 15.394 84.235 15.0007C84.1795 14.5575 84.246 14.189 84.4343 13.8954C84.8331 13.1253 85.6946 12.4548 87.0187 11.8841C88.3372 11.269 89.9632 10.9531 91.8967 10.9363C93.4369 11.0137 94.6447 11.4928 95.5202 12.3736C96.3956 13.2545 96.9165 14.3597 97.0828 15.6893C97.2103 16.7087 97.083 17.85 96.7008 19.1132C96.3574 20.3265 95.7426 21.5288 94.8562 22.7201C96.0806 22.4319 97.208 22.4484 98.2385 22.7696C99.2691 23.0909 100.144 23.6116 100.865 24.3317C101.89 25.3289 102.607 26.5671 103.017 28.0463C103.428 29.5255 103.383 30.9715 102.885 32.3843ZM123.505 20.2843C123.633 21.3036 123.614 22.589 123.448 24.1403C123.32 25.6417 122.974 27.193 122.409 28.7941C121.844 30.3953 121.024 31.9383 119.95 33.4232C118.919 34.9025 117.562 36.1076 115.878 37.0385C114.831 37.6647 113.756 38.0692 112.654 38.2521C111.59 38.3852 110.587 38.2856 109.645 37.9532C108.748 37.6153 107.955 37.0392 107.268 36.2249C106.576 35.3662 106.071 34.2139 105.756 32.7679C105.406 31.056 105.323 29.3109 105.506 27.5324C105.727 25.7041 106.187 23.9811 106.885 22.3633C107.622 20.6956 108.558 19.1831 109.693 17.8256C110.829 16.4681 112.15 15.3351 113.657 14.4263C113.99 14.2047 114.325 14.1853 114.663 14.3681C115.039 14.501 115.311 14.8722 115.477 15.4816C117.81 15.4149 119.682 15.8109 121.095 16.6695C122.502 17.4838 123.306 18.6887 123.505 20.2843ZM110.26 32.0695C110.426 32.6789 110.659 33.0999 110.958 33.3326C111.257 33.5652 111.59 33.7037 111.955 33.748C112.315 33.748 112.709 33.6537 113.135 33.4653C113.562 33.2769 113.963 33.0691 114.34 32.842C114.756 32.5649 115.127 32.2934 115.454 32.0275C115.775 31.7172 116.033 31.4374 116.226 31.188C117.323 29.8805 118.146 28.3596 118.694 26.6255C119.237 24.847 119.472 22.9495 119.4 20.9328C119.367 20.6669 119.156 20.4231 118.768 20.2016C118.381 19.98 117.89 19.8388 117.297 19.7779C116.743 19.6671 116.128 19.609 115.453 19.6035C114.777 19.598 114.131 19.6563 113.516 19.7782C112.946 20.6148 112.406 21.5152 111.896 22.4792C111.386 23.4432 110.974 24.4627 110.658 25.5375C110.337 26.568 110.135 27.6511 110.052 28.7869C109.963 29.8783 110.032 30.9725 110.26 32.0695ZM130.472 29.8788C130.029 29.9342 129.572 29.8788 129.101 29.7127C128.624 29.5022 128.264 28.9621 128.02 28.0923C127.577 25.987 127.125 23.6352 126.665 21.0369C126.205 18.4386 125.925 15.8402 125.825 13.2419C125.869 12.8762 126.027 12.5189 126.298 12.1698C126.614 11.8152 127.06 11.6019 127.636 11.5298C128.168 11.4633 128.617 11.6322 128.983 12.0366C129.387 12.3912 129.637 12.7651 129.731 13.1585L129.797 13.6903C129.875 13.5906 129.977 13.5102 130.105 13.4493C130.227 13.344 130.326 13.2415 130.404 13.1418C131.346 12.3938 132.473 11.6901 133.786 11.0307C135.143 10.3657 136.49 9.97224 137.825 9.85024C139.165 9.77256 140.229 9.99962 141.016 10.5314C141.847 11.0577 142.099 11.9939 141.772 13.3402C141.241 14.8472 140.781 16.5703 140.393 18.5094C140 20.4042 139.671 22.2685 139.405 24.1023C139.815 23.7809 140.264 23.4097 140.751 22.9886C141.239 22.5675 141.704 22.1492 142.147 21.7336C142.629 21.2682 143.072 20.8527 143.477 20.487C143.92 20.0714 144.283 19.7334 144.565 19.473C145.053 19.0519 145.432 18.8469 145.704 18.8579C146.019 18.8635 146.23 18.9272 146.335 19.049C146.585 19.2429 146.748 19.6501 146.826 20.2706C146.898 20.8468 146.79 21.423 146.502 21.9992C145.876 23.1128 144.881 24.3401 143.519 25.6809C142.195 26.9719 140.693 28.105 139.015 29.0802C138.677 29.2576 138.295 29.4404 137.868 29.6288C137.48 29.7674 137.106 29.8366 136.746 29.8367C136.38 29.7924 136.048 29.6539 135.749 29.4212C135.488 29.1387 135.319 28.6872 135.242 28.0667C135.12 27.0916 135.075 26.0168 135.109 24.8423C135.186 23.6622 135.305 22.4545 135.466 21.219C135.626 19.9835 135.837 18.7868 136.097 17.6289C136.396 16.4211 136.681 15.2825 136.952 14.2132C136.21 14.3961 135.418 14.7203 134.576 15.1858C133.778 15.6457 132.98 16.1056 132.183 16.5655C131.595 16.909 130.947 16.9451 130.238 16.6737C130.559 18.5241 130.856 20.3551 131.128 22.1667C131.438 23.9285 131.743 25.6459 132.042 27.3191C132.236 28.8703 131.713 29.7235 130.472 29.8788ZM159.375 23.9676C159.436 24.4551 159.305 24.8541 158.984 25.1643C158.657 25.4303 158.289 25.5439 157.879 25.5052C157.469 25.4664 157.092 25.3335 156.749 25.1064C156.4 24.8349 156.089 24.5136 155.818 24.1424C155.591 23.7657 155.386 23.3862 155.203 23.004C155.059 22.5719 154.967 22.2007 154.928 21.8904C154.413 18.8489 153.997 15.8849 153.681 12.9985C153.359 10.0677 153.135 7.19237 153.007 4.37241C152.974 3.38626 153.251 2.72141 153.838 2.37786C154.42 1.99 154.965 1.85421 155.475 1.97051C155.941 2.09236 156.384 2.39703 156.805 2.88454C157.22 3.32772 157.45 4.0867 157.495 5.1615C157.55 7.04517 157.653 8.94546 157.803 10.8624C159.365 10.3968 161.071 10.0033 162.922 9.68185C164.772 9.36036 166.598 9.19953 168.398 9.19938C168.941 9.22149 169.362 9.34888 169.662 9.58154C170.005 9.80866 170.216 10.0524 170.293 10.3128C170.365 10.5289 170.288 10.8086 170.061 11.1522C169.828 11.4513 169.476 11.6979 169.005 11.8919C167.376 12.5458 165.604 13.1276 163.687 13.6375C161.809 14.0975 159.947 14.5104 158.102 14.8762C158.252 16.433 158.421 17.9649 158.61 19.4718C158.837 20.9288 159.092 22.4275 159.375 23.9676ZM153.558 28.7466C153.547 30.0984 153.55 31.561 153.566 33.1344C153.622 34.658 153.73 36.0624 153.891 37.3477C155.913 36.5996 157.741 35.7407 159.376 34.771C161.004 33.757 162.544 32.7541 163.996 31.7623C164.622 31.3689 165.073 31.3799 165.35 31.7954C165.517 32.0447 165.583 32.3965 165.55 32.8508C165.517 33.3051 165.398 33.7927 165.193 34.3135C164.744 35.4049 164.049 36.3247 163.107 37.0727C162.165 37.8207 161.127 38.5133 159.991 39.1505C159.237 39.6049 158.329 40.0787 157.265 40.5718C156.196 41.0207 155.154 41.331 154.141 41.5029C153.171 41.6691 152.307 41.5972 151.548 41.287C150.783 40.9325 150.268 40.2317 150.002 39.1846C149.614 37.5226 149.4 35.8162 149.362 34.0655C149.367 32.3093 149.444 30.7691 149.594 29.445C149.66 28.8965 149.782 28.251 149.959 27.5086C150.175 26.7164 150.541 26.2205 151.056 26.021C151.81 25.9267 152.4 26.1455 152.826 26.6773C153.247 27.1649 153.491 27.8546 153.558 28.7466Z" fill="#26E45C"/>
</svg>
