<svg width="185" height="114" viewBox="0 0 185 114" fill="none" xmlns="http://www.w3.org/2000/svg">
<path opacity="0.2" d="M19.1536 95.464C20.0322 95.0852 21.2317 94.7271 22.1593 94.4889C22.45 94.4139 22.3536 94.5904 22.5565 94.5441C22.9532 94.4533 23.2843 94.2616 23.6801 94.1801C23.811 94.1539 23.7302 94.4078 23.8659 94.3758C24.6087 94.1986 25.2633 93.8958 26.0021 93.6641C29.6322 92.5261 33.145 91.2313 36.7811 89.9156C37.9713 89.4848 39.501 89.0937 40.6867 88.5458C40.8264 88.4811 40.6745 88.3423 40.6963 88.3176C41.0407 87.9352 41.0325 88.3372 41.3307 88.275C42.53 88.0212 43.7392 87.5757 44.7948 87.0984C45.2423 86.8954 44.6522 86.728 45.1877 86.7445C45.2248 86.7453 45.1775 86.9725 45.311 86.9441C45.6162 86.8785 46.1404 86.643 46.3611 86.5765C46.791 86.4475 46.8599 86.4195 47.2598 86.2718C47.8075 86.0715 48.4964 85.9183 49.0779 85.6556C49.2019 85.5989 48.9633 85.4734 49.155 85.366C49.3479 85.2581 49.8722 85.0828 50.0676 85.0614C50.2615 85.0405 50.2403 85.2163 50.2842 85.2386C50.6472 85.43 51.1151 84.809 51.1913 84.7702C52.5901 84.0703 53.8909 83.8589 55.2544 83.3758C56.3009 83.0046 57.3687 82.5482 58.3523 82.2213C59.5239 81.8327 60.5936 81.585 61.7019 81.1951C61.821 81.1535 61.6061 80.9766 61.7516 80.9253C63.2976 80.3806 64.9008 79.8848 66.4901 79.5451C66.6518 79.5105 66.5126 79.7722 66.6779 79.7495C67.6824 79.607 69.3696 79.5081 69.6465 78.4797C70.3002 78.3143 71.1016 78.1072 71.7429 78.103C72.1564 78.1 71.8525 78.4275 72.2918 78.1943C72.3912 78.142 72.1968 77.9942 72.3503 77.93C73.0011 77.6584 73.7445 77.5039 74.3551 77.2174C74.4804 77.1583 74.3946 76.9991 74.4228 76.9575C74.6629 76.6175 75.3084 76.8732 75.432 76.8695C76.3712 76.8364 76.9917 76.5628 77.8266 76.3306C78.0205 76.2768 77.7265 76.1133 77.911 76.0533C78.839 75.7537 79.8083 75.503 80.7701 75.3464C80.9838 75.3122 80.8471 75.5601 80.952 75.5538C81.4141 75.5236 81.4102 75.128 81.8548 75.0919C81.9486 75.0838 81.944 75.2648 81.9653 75.2787C82.2987 75.4974 82.4096 75.0283 82.4731 75.0013C83.2888 74.6473 83.8825 74.9455 84.658 74.6739C84.7499 74.6413 84.4816 74.4857 84.7435 74.4068C86.4839 73.8809 88.4394 73.4375 90.2005 73.175C90.4795 73.1325 90.3253 73.3413 90.3474 73.3567C90.704 73.5942 90.782 73.1363 90.8674 73.0984C91.5438 72.8101 92.2943 72.9919 92.6601 72.3803C95.6561 71.8244 98.6758 70.8229 101.67 70.6132C101.709 70.6099 101.688 70.8294 101.765 70.8218C102.696 70.733 102.451 70.4545 102.968 69.9312C103.099 69.7996 103.668 70.1657 103.717 70.1911C103.896 70.2846 103.807 70.6234 103.863 70.6368C104.322 70.7377 104.031 69.7462 104.597 69.6217C104.615 69.6195 104.582 69.8211 104.633 69.8291C104.793 69.8546 104.924 69.7489 105.083 69.7811C105.451 69.8555 105.664 70.3214 106.089 69.9311C106.143 69.8808 105.925 69.3298 106.42 69.2514C106.616 69.2206 107.482 69.0249 107.735 69.0099C107.987 68.9949 107.859 69.2149 107.878 69.2192C108.589 69.3229 108.36 69.477 108.768 69.7678C109.175 70.0573 108.902 69.2193 109.018 69.095C109.133 68.971 109.664 69.0697 109.799 69.1145C109.934 69.1594 109.808 69.3079 109.923 69.3251C110.687 69.4358 110.147 68.8343 110.353 68.6493C110.838 68.2123 111.413 68.7571 111.924 68.7174C112.059 68.7072 111.922 68.5843 112.037 68.5466C112.494 68.3992 112.816 68.5405 113.315 68.2498C113.397 68.2023 113.754 67.7315 114.093 67.9559C114.142 67.9884 114.06 68.17 114.269 68.165C114.582 68.1577 115.136 68.0833 115.453 67.9651C115.688 67.8778 115.358 67.6711 115.68 67.692C115.823 67.7014 115.601 67.9043 115.867 67.9093C116.132 67.9145 116.782 67.7796 117.03 67.7256C117.278 67.6716 117.103 67.4996 117.121 67.4822C117.227 67.3818 117.688 67.1926 117.731 67.1846C119.828 66.7522 121.774 66.7318 123.837 66.237C123.998 66.1986 123.851 66.0086 123.875 66.0006C124.418 65.8101 124.08 66.4491 124.504 66.5644C124.37 66.1486 124.614 66.1835 125.002 66.0647C125.188 66.007 125.054 65.861 125.069 65.8409C125.311 65.5379 125.551 65.8288 125.613 65.886C125.837 66.0971 125.98 65.7738 126.132 65.9146C126.284 66.0542 126.045 66.3446 126.409 66.2758C126.484 66.1048 126.141 65.7548 126.407 65.6402C127.408 65.2071 129.448 65.1696 130.321 65.0519C131.19 64.9343 131.468 64.8578 131.985 64.8259C132.921 64.7684 132.537 64.5292 133.063 64.3C133.59 64.071 133.447 64.8457 133.552 64.989C133.656 65.1326 133.714 64.9569 133.825 65.0267C133.936 65.0966 133.746 65.2384 133.978 65.2325C134.21 65.2265 134.786 64.8429 134.84 64.6654C134.954 64.2893 134.61 63.9718 135.238 63.9987C135.274 64.0004 135.193 64.2112 135.33 64.2083C136.416 64.1789 137.532 64.0048 138.636 63.96C138.788 63.9541 138.69 64.1893 138.779 64.1883C139.704 64.1787 139.323 63.8709 139.757 63.3907C139.726 63.9418 140.07 64.2205 140.738 64.1172C141.136 64.0559 141.031 63.8342 141.263 63.6293C141.332 63.5676 141.64 63.6825 141.674 63.565C141.787 63.1806 141.456 62.8223 142.17 62.8732C142.201 62.8761 142.136 63.087 142.242 63.0824C142.93 63.0539 142.953 62.667 143.682 62.5071C144.253 62.3817 145.322 62.4507 145.995 62.3862C146.072 62.9878 146.681 62.7546 146.876 62.3024C147.313 62.2535 147.781 62.1591 148.213 62.1528C148.362 62.1505 148.292 62.3384 148.313 62.3545C148.641 62.6062 148.753 62.1783 148.844 62.1487C149.803 61.849 150.655 62.0352 151.562 61.5984C151.595 61.5827 151.589 61.1579 151.888 61.4252C151.907 61.4437 151.62 61.6792 152.071 61.6286C152.522 61.5781 153.404 61.6789 154.007 61.3956C154.153 61.3273 154.491 60.9337 154.84 61.154C154.886 61.184 154.858 61.3101 154.927 61.3681C155.151 61.5527 155.197 61.1162 155.475 61.4421C155.754 61.768 156.266 61.9693 156.876 61.6319C156.896 61.6218 157.002 61.2663 157.195 61.2448C157.506 61.2103 157.956 61.2187 158.282 61.1715C158.437 61.1488 158.309 60.955 158.335 60.9475C159.369 60.6864 160.146 60.7687 161.297 60.695C161.508 60.6819 162.072 60.3176 162.51 60.487C162.99 60.6723 162.665 61.7533 163.664 61.3732C164.068 61.2208 164.426 59.857 165.27 60.4284C166.708 60.0713 168.021 60.2511 169.435 59.8307C169.498 59.812 169.656 59.4248 169.809 59.4106C170.036 59.39 170.181 59.5433 170.344 59.5341C171.028 59.4998 171.633 59.2775 172.295 59.2182C172.546 59.1954 172.48 59.3809 172.78 59.3537C173.081 59.3264 173.252 59.0717 173.672 59.1329C173.99 59.1799 174.356 59.6125 174.772 59.6174C174.726 59.1522 175.03 59.1249 175.487 58.9454C175.576 58.9104 175.458 58.761 175.499 58.7361C175.667 58.6314 175.847 58.7453 176.006 58.6343C176.044 58.6076 176.027 58.4489 176.058 58.4181C176.316 58.1503 176.832 58.45 176.92 58.5024C177.26 58.7008 177.382 58.4773 177.633 58.5416C177.883 58.6059 177.539 58.7645 177.825 58.7875C178.419 58.8351 179.165 58.7211 179.76 58.6587C179.998 58.6329 179.811 58.4403 179.845 58.4316C180.329 58.3205 180.854 58.4876 181.079 58.0344C181.548 59.0846 181.364 57.8941 182.098 58.0306C182.156 58.0418 182.286 58.5491 182.081 58.6494C181.875 58.7497 181.532 58.6261 181.25 58.7783C181.182 58.8141 180.837 59.3437 180.786 59.3793C180.385 59.6577 180.235 58.8947 180.207 58.855C179.897 58.4285 179.471 59.0059 179.347 59.0569C178.78 59.2905 178.272 59.2409 177.799 59.4163C177.49 59.5302 177.52 60.0382 177.269 60.0525C176.436 60.1004 176.063 59.4317 175.363 60.1352C175.21 60.2858 175.446 60.8163 174.774 60.4583C174.732 60.4357 174.224 60.0954 173.99 60.3786C173.96 60.4143 173.981 60.5747 173.939 60.5936C173.656 60.7168 173.445 60.6129 173.133 60.7135C172.822 60.8141 172.451 60.9527 172.083 60.9433C171.86 60.9379 171.544 60.6736 171.43 60.6134C171.11 60.4392 170.839 60.8245 170.625 60.5919C170.41 60.3582 170.719 59.9233 170.218 59.8179C170.253 60.2371 170.266 60.6703 170.291 61.0932C169.24 61.2108 168.198 61.2067 167.165 61.3589C167.037 61.3782 167.197 61.5853 167.06 61.6118C166.485 61.7224 165.963 61.6278 165.338 61.7744C164.861 61.8878 164.364 62.1946 163.871 62.3208C163.501 61.8846 162.78 62.1453 162.238 62.1737C162.049 62.1839 162.044 62.0549 161.905 62.0313C161.381 61.9454 161.674 62.3349 161.545 62.4197C160.994 62.7823 160.814 61.8359 160.125 61.9537C160.088 61.9596 159.71 62.5288 159.654 62.5689C159.292 62.8287 159.565 62.4009 159.315 62.3969C158.861 62.3895 158.535 62.3107 158.036 62.5315C157.891 62.5966 157.572 62.9636 157.245 62.7596C157.202 62.7329 157.2 62.562 157.168 62.5565C156.56 62.4744 156.618 63.0043 156.309 63.2298C156 63.4553 155.435 63.164 155.316 63.0739C155.004 62.8412 155.509 62.9282 155.52 62.8995C155.649 62.5579 155.282 62.6655 154.993 62.6793C154.878 62.1682 154.483 62.256 154.693 62.6957C154.717 62.7436 154.932 62.6638 154.993 62.6793C154.814 63.2222 154.385 63.3495 153.836 62.9446C153.579 62.7548 153.754 62.4652 153.084 62.6583C152.781 62.7458 152.952 63.0844 152.693 63.2208C152.103 63.5323 151.25 63.3177 150.624 63.4634C150.396 63.5163 150.649 63.678 150.495 63.7208C150.086 63.8351 149.698 63.7433 149.293 63.88C149.256 63.8927 149.379 64.0827 149.25 64.1046C148.278 64.2735 147.337 64.2818 146.29 64.4377C145.78 64.5136 144.892 64.7651 144.368 64.8233C143.459 64.9253 142.311 64.8022 141.564 64.9945C141.076 65.119 141.218 65.3053 141.028 65.4776C140.676 65.8092 139.825 65.4522 139.717 65.3931C139.714 65.3912 140.148 65.2721 139.895 65.2056C139.723 65.0101 139.722 65.3914 139.717 65.3931C139.642 65.3557 138.756 65.4516 138.589 65.5188C138.498 65.5554 138.582 65.7395 138.534 65.755C137.393 66.1177 136.243 66.3579 135.068 66.4622C135.046 66.4617 135.041 66.2412 134.992 66.2428C134.305 66.2596 133.922 66.5953 133.401 66.8447C132.888 67.0926 132.403 67.1219 132.008 66.8094C131.587 66.9298 130.945 66.8726 130.577 66.8347C130.208 66.7968 130.233 67.2241 130.203 67.2378C129.29 67.6707 128.697 67.5282 127.708 67.6659C127.238 67.7307 126.33 67.9567 125.841 68.0929C125.446 68.2028 125.173 68.1512 124.808 68.2827C124.759 68.3005 124.844 68.4772 124.83 68.4872C124.45 68.7871 124.569 68.2949 124.467 68.2296C124.098 67.9918 123.874 67.8702 123.365 68.1083C123.247 68.163 123.01 68.8847 122.794 68.9647C122.513 69.0675 122.579 68.8123 122.286 68.9259C122.261 68.9354 122.293 69.0792 122.105 69.1079C121.232 69.243 120.279 69.3366 119.398 69.5211C119.278 69.5457 119.477 69.7454 119.304 69.7848C118.494 69.9687 117.533 70.1471 116.699 70.2C116.492 70.2126 116.587 70.0271 116.534 69.9881C116.208 69.7527 115.912 70.2469 115.851 70.2673C114.394 70.7663 113.227 70.6077 111.74 71.1018C111.658 71.1297 111.106 71.7114 110.74 71.3866C110.715 71.365 110.35 71.0307 110.157 71.3518C110.145 71.3719 110.363 71.5376 110.052 71.5811C109.741 71.6247 109.279 71.8632 108.815 71.7292C108.668 71.6871 108.272 71.3613 107.947 71.7573C107.926 71.7846 107.475 72.6199 107.157 72.1787C107.105 72.106 107.03 71.5825 106.624 71.9468C106.547 72.0171 106.732 72.0975 106.515 72.2195C106.188 72.4061 105.672 72.3738 105.267 72.7033C105.196 72.7613 104.937 73.1847 104.61 72.9786C104.559 72.9463 104.601 72.7567 104.455 72.7688C103.76 72.8254 103.086 73.0964 102.386 73.1291C102.139 73.141 102.198 72.8358 101.933 72.8174C101.668 72.7991 101.154 72.8405 100.926 73.026C100.698 73.2116 101.079 73.5898 100.703 73.713C99.0571 74.2516 97.2568 74.4007 95.5875 74.7623C95.3386 74.8163 95.5814 74.9247 95.2182 75.0155C93.8946 75.3458 91.5065 76.0946 90.2755 76.0525C89.2749 76.0217 90.3965 75.5196 89.6563 75.5918C89.2993 75.6273 89.0613 76.2329 88.9834 76.2701C88.1924 76.6475 87.5512 76.5727 86.8282 76.8364C86.6789 76.891 86.8833 77.0583 86.7557 77.1025C86.3208 77.2551 85.8326 77.2855 85.4179 77.414C85.2321 77.4721 85.3088 77.6206 85.133 77.6545C84.7132 77.7374 84.3328 77.7686 83.8951 77.7284C83.8551 77.7247 84.0471 77.4624 83.7425 77.537C83.228 77.664 82.5579 77.6903 82.021 77.9998C81.8619 78.0923 81.9541 78.4539 81.5186 78.307C81.4275 78.2764 81.4052 77.8174 81.0827 78.3088C81.0275 78.3908 80.4563 79.0922 80.0196 78.8655C79.9042 78.8059 79.5715 78.5187 79.3861 78.631C79.3614 78.6475 79.525 78.8095 79.3639 78.8754C78.811 79.0998 78.141 79.2687 77.5466 79.5055C77.3864 79.5695 77.6894 79.698 77.4491 79.7871C76.7883 80.0323 75.9409 80.2247 75.2777 80.3529C75.033 80.3997 75.1487 80.1864 75.1261 80.1736C74.7616 79.9642 74.7145 80.4064 74.6295 80.4566C74.105 80.7619 73.5783 80.7184 73.0566 80.929C72.9113 80.987 73.0737 81.1425 73.049 81.1682C72.7908 81.4243 72.9181 81.0186 72.7124 81.0404C72.1359 81.1002 71.5387 81.2991 71.0053 81.4895C70.8096 81.5597 71.0994 81.7079 70.9232 81.7684C69.9039 82.1235 68.744 82.4642 67.6769 82.6728C67.4746 82.7121 67.5443 82.5065 67.4915 82.4814C67.1262 82.3047 66.8343 82.7983 66.7521 82.8629C66.3775 83.1573 66.166 83.0632 65.8027 83.2113C63.9511 83.9617 61.7071 84.6032 59.9068 85.1542C57.6406 85.8456 55.788 86.323 53.6804 87.1291C53.5425 87.1815 53.7613 87.3497 53.6436 87.3977C52.1127 88.0107 50.6393 88.4558 49.1127 89.0973C48.9895 89.1487 49.2467 89.288 49.0516 89.3774C48.6522 89.5625 48.1309 89.7453 47.6961 89.8339C47.4842 89.8776 47.6857 89.5995 47.4738 89.6471C46.9873 89.7547 46.4578 89.9384 45.9829 90.1567C45.7802 90.2504 46.1743 90.3417 45.9048 90.4469C44.0889 91.1618 42.2852 91.8995 40.3499 92.3384C40.2143 92.3696 39.9356 91.9864 39.6955 92.1741C39.7211 92.3006 39.7765 92.4395 39.8168 92.5696C37.1761 93.6755 34.4845 94.5616 31.7852 95.5809C31.6722 95.6236 31.9546 95.7745 31.7361 95.8584C30.47 96.3446 29.2506 96.8856 27.8667 97.1528C27.7285 97.18 27.6435 96.7556 27.2843 96.9607C27.221 96.9973 26.666 97.2677 26.55 97.4102C26.5347 97.4309 26.7098 97.578 26.5265 97.6531C25.4619 98.0856 24.3125 98.4633 23.1899 98.7425C23.0086 98.7871 23.1217 98.5201 22.9921 98.5501C22.0743 98.7643 21.1676 99.2604 20.2579 99.3761C19.6489 99.4526 19.737 99.0326 19.3178 98.7966C19.2586 98.7633 18.9061 98.8773 18.8192 98.685C18.5999 98.2018 18.5789 97.5966 18.325 97.0886C18.2707 96.9791 17.8487 97.2633 18.028 96.8911C18.0408 96.866 18.3455 96.6573 18.3955 96.5345C18.4305 96.4495 18.2565 96.2838 18.345 96.1598C18.4334 96.0358 18.6215 96.1599 18.7819 95.9941C18.9416 95.827 18.7756 95.6279 19.1536 95.464ZM128.925 66.6678C128.567 66.5236 128.65 67.2683 128.967 67.0307C128.982 67.0183 128.943 66.6747 128.925 66.6678ZM168.135 60.6467C167.673 60.3734 167.449 60.8913 167.777 61.1059C168.105 61.3203 168.276 60.7295 168.135 60.6467ZM172.511 59.8528C171.977 59.657 172.029 60.719 172.54 60.4397C172.57 60.4238 172.543 59.8642 172.511 59.8528ZM20.673 98.2103C20.6654 98.2025 20.4115 98.2823 20.4088 98.2937C20.3545 98.5649 20.8626 98.405 20.673 98.2103ZM176.873 59.0576C176.703 58.9335 176.282 59.1508 176.493 59.3051C176.663 59.4291 177.085 59.2119 176.873 59.0576ZM112.01 69.0723C112.003 69.0624 111.82 69.0896 111.834 69.1511C111.89 69.3467 112.13 69.2391 112.01 69.0723ZM184.342 58.1756C183.215 58.2632 182.44 57.4705 183.669 57.4298C183.892 57.4224 183.225 57.7615 183.515 57.8079C184.045 57.8923 184.326 57.3071 184.887 57.5404C184.989 57.5832 184.406 58.1726 184.34 58.1771C184.341 58.1766 184.341 58.1761 184.342 58.1756ZM128.583 65.8161C128.575 65.8075 128.315 65.844 128.311 65.8547C128.212 66.1132 128.736 66.0399 128.583 65.8161ZM101.033 70.967C101.014 70.9496 100.421 71.0644 100.407 71.0877C100.187 71.5359 101.384 71.3053 101.033 70.967ZM146.008 62.4006C146.259 62.1208 146.6 62.0406 146.874 62.3023C146.585 62.33 146.297 62.3714 146.008 62.4006Z" fill="#26E45C"/>
<path d="M25.002 74.0496C25.1295 74.7088 25.0824 75.2324 24.8608 75.6202C24.678 75.9582 24.4094 76.1494 24.0548 76.1937C23.0797 76.3157 22.3678 76.2022 21.919 75.8532C21.4647 75.4599 21.0851 74.9447 20.7804 74.3076C20.3647 73.1441 19.9851 71.9087 19.6415 70.6012C19.2979 69.2938 19.0014 68.0029 18.752 66.7287C17.0955 67.161 15.5941 67.5739 14.2479 67.9673C12.8961 68.3165 11.982 68.5659 11.5055 68.7155C10.7687 68.9427 9.99863 68.904 9.19527 68.5994C8.43069 68.2449 7.96249 67.7407 7.79069 67.087C7.71307 66.4665 8.00389 65.9125 8.66313 65.4249C9.36669 64.9317 10.0149 64.5355 10.6076 64.2363C11.422 63.9094 12.4829 63.5741 13.7904 63.2305C15.0923 62.8426 16.5078 62.4629 18.0369 62.0916C17.6766 59.5708 17.4437 57.3492 17.3382 55.4268C17.2716 53.4545 17.3075 52.1221 17.4459 51.4295C17.4957 50.388 17.8475 49.7813 18.5012 49.6095C19.1494 49.3933 19.6424 49.3767 19.9804 49.5595C20.3683 49.781 20.7201 50.0746 21.0359 50.4403C21.3905 50.756 21.5595 51.0275 21.5429 51.2546C21.5763 52.961 21.6734 54.6369 21.8342 56.2824C22.0338 57.8779 22.2583 59.4929 22.5078 61.1272C24.0479 60.8445 25.5465 60.5896 27.0036 60.3623C28.4606 60.135 29.7931 59.9908 31.0008 59.9298C32.4302 59.841 33.1532 60.4033 33.17 61.6166C33.1922 62.154 32.918 62.661 32.3474 63.1375C31.8155 63.5641 31.1757 63.8467 30.4278 63.9853C29.4195 64.2014 28.3031 64.4536 27.0788 64.7418C25.8488 64.9857 24.558 65.2822 23.2062 65.6314C23.4723 67.0386 23.7605 68.443 24.0709 69.8446C24.3812 71.2463 24.6916 72.6479 25.002 74.0496ZM41.2528 74.0424C40.3719 73.4774 39.6959 72.7517 39.2249 71.8653C38.7484 70.9346 38.4907 70.3141 38.4519 70.0039C36.9388 62.9458 36.3537 55.9291 36.6966 48.954C36.8018 47.9955 36.9402 47.1229 37.1119 46.3362C37.2836 45.5494 37.5024 45.1395 37.7683 45.1062C38.0785 45.0674 38.422 45.1144 38.7988 45.2474C39.1755 45.3803 39.5135 45.5631 39.8127 45.7958C40.1119 46.0284 40.3474 46.2916 40.5191 46.5852C40.7352 46.8733 40.8599 47.1503 40.8932 47.4162C40.5501 51.8705 40.6058 56.275 41.0605 60.6296C41.554 64.9343 42.2026 69.2196 43.0063 73.4855C43.0617 73.9287 42.8955 74.2196 42.5077 74.3581C42.2917 74.4302 42.0673 74.4357 41.8346 74.3748C41.6407 74.264 41.4467 74.1532 41.2528 74.0424ZM50.9558 87.1434C50.5624 86.8775 50.4238 86.4897 50.5401 85.98C50.6564 85.4703 50.7811 85.0271 50.914 84.6503C51.2297 83.5755 51.4955 82.4619 51.7115 81.3095C51.9219 80.1128 52.0575 78.8579 52.1184 77.5449C52.1349 76.9576 52.3842 76.4313 52.8662 75.9659C53.3426 75.4561 54.0406 75.2788 54.9603 75.4338C55.3371 75.5667 55.5698 75.8077 55.6584 76.1568C55.7859 76.4559 55.8746 76.8049 55.9245 77.2038C56.0021 77.8243 56.0049 78.5667 55.933 79.431C55.8998 80.2454 55.7974 81.046 55.6257 81.8327C55.4596 82.6638 55.2408 83.4339 54.9694 84.143C54.698 84.8522 54.4293 85.4035 54.1634 85.7969C53.7036 86.4396 53.1746 86.8884 52.5763 87.1433C52.0278 87.437 51.4876 87.437 50.9558 87.1434ZM63.3504 55.4106C64.5914 55.2554 65.8712 55.0503 67.1898 54.7953C68.5083 54.5403 69.7826 54.471 71.0125 54.5872C72.6081 54.7477 73.8575 55.3792 74.7606 56.4816C75.6638 57.584 75.9464 58.9441 75.6086 60.5619C75.3483 61.7198 74.9274 62.8529 74.3458 63.961C73.7641 65.069 73.0634 66.1245 72.2435 67.1274C71.468 68.1247 70.6204 69.086 69.7008 70.0113C68.8255 70.931 67.9669 71.8037 67.1248 72.6293C66.5542 73.1058 65.9227 73.2748 65.2301 73.1363C64.532 72.9536 63.978 72.6628 63.568 72.2639C62.554 71.3554 62.6066 70.6961 63.7257 70.286C65.7754 68.3191 67.5176 66.4131 68.9524 64.5681C70.3816 62.6787 71.387 60.8199 71.9686 58.9916C72.0184 58.6702 71.7497 58.5013 71.1624 58.4847C70.5752 58.4682 69.8411 58.5375 68.9602 58.6927C68.1236 58.8423 67.2012 59.0252 66.1929 59.2414C65.1846 59.4576 64.2871 59.6599 63.5004 59.8483C63.24 59.9259 62.9076 59.9675 62.5032 59.973C62.0988 59.9786 61.686 59.9177 61.2649 59.7903C60.8439 59.6629 60.481 59.4607 60.1762 59.1837C59.8659 58.8624 59.6775 58.4359 59.611 57.904C59.306 54.386 59.1367 50.8735 59.1032 47.3666C59.1139 43.8541 59.1829 40.6269 59.3101 37.685C59.3433 37.2307 59.5095 36.9398 59.8086 36.8124C60.1521 36.6794 60.5095 36.6572 60.8807 36.7458C61.6785 37.0061 62.2907 37.4022 62.7173 37.934C63.1828 38.416 63.4016 38.9063 63.374 39.4049C63.3076 40.3135 63.2467 41.2664 63.1914 42.2637C63.1804 43.2554 63.1722 44.2692 63.1667 45.3052C65.5324 44.7843 67.7567 44.3935 69.8398 44.1329C71.9617 43.8225 73.9008 43.6699 75.657 43.6753C76.2443 43.6919 76.8343 43.7306 77.4271 43.7915C78.0587 43.8025 78.7208 43.8773 79.4133 44.0157C79.9119 44.0434 80.3247 44.2843 80.6516 44.7386C80.973 45.1486 80.9758 45.5308 80.66 45.8854C79.9509 46.3343 79.3415 46.6806 78.8318 46.9244C78.3609 47.1183 78.0812 47.2209 77.9925 47.2319C72.5964 47.6369 67.6601 48.4794 63.1837 49.7596C63.2226 50.7901 63.2587 51.7984 63.292 52.7845C63.3198 53.7264 63.3393 54.6017 63.3504 55.4106ZM101.216 47.298C101.343 48.3174 101.324 49.6027 101.158 51.154C101.031 52.6554 100.684 54.2067 100.12 55.8078C99.5546 57.409 98.7347 58.952 97.6601 60.4369C96.6297 61.9162 95.2725 63.1214 93.5883 64.0523C92.5413 64.6784 91.4665 65.0829 90.364 65.2658C89.3003 65.3989 88.2975 65.2993 87.3557 64.9669C86.4581 64.6291 85.6658 64.0529 84.9788 63.2386C84.2861 62.3799 83.7819 61.2276 83.466 59.7816C83.1168 58.0697 83.0335 56.3246 83.2162 54.5461C83.4377 52.7178 83.8973 50.9948 84.5953 49.377C85.332 47.7093 86.2681 46.1968 87.4038 44.8393C88.5394 43.4819 89.8606 42.3488 91.3675 41.44C91.6999 41.2184 92.0351 41.199 92.373 41.3818C92.7498 41.5147 93.0213 41.8859 93.1876 42.4953C95.52 42.4286 97.3926 42.8246 98.8054 43.6832C100.213 44.4975 101.016 45.7024 101.216 47.298ZM87.9701 59.0832C88.1364 59.6926 88.3691 60.1136 88.6683 60.3463C88.9675 60.5789 89.2999 60.7174 89.6656 60.7617C90.0257 60.7617 90.419 60.6675 90.8456 60.4791C91.2722 60.2906 91.6738 60.0829 92.0505 59.8557C92.466 59.5786 92.8372 59.3071 93.1641 59.0412C93.4854 58.7309 93.743 58.4511 93.9368 58.2018C95.0337 56.8942 95.8563 55.3733 96.4046 53.6392C96.9474 51.8607 97.1827 49.9632 97.1105 47.9465C97.0772 47.6806 96.8667 47.4369 96.4788 47.2153C96.091 46.9937 95.6007 46.8525 95.0079 46.7916C94.4539 46.6808 93.8389 46.6227 93.163 46.6172C92.4871 46.6117 91.8416 46.67 91.2267 46.7919C90.6561 47.6285 90.116 48.5289 89.6064 49.4929C89.0968 50.4569 88.6841 51.4764 88.3684 52.5512C88.0472 53.5817 87.8451 54.6649 87.7621 55.8006C87.6735 56.892 87.7429 57.9862 87.9701 59.0832ZM123.048 44.567C123.176 45.5864 123.157 46.8717 122.99 48.423C122.863 49.9244 122.517 51.4757 121.952 53.0768C121.387 54.678 120.567 56.221 119.493 57.7059C118.462 59.1852 117.105 60.3904 115.421 61.3213C114.374 61.9474 113.299 62.3519 112.197 62.5348C111.133 62.6679 110.13 62.5683 109.188 62.2359C108.291 61.8981 107.498 61.3219 106.811 60.5076C106.119 59.6489 105.614 58.4966 105.299 57.0506C104.949 55.3387 104.866 53.5936 105.049 51.8151C105.27 49.9869 105.73 48.2638 106.428 46.646C107.165 44.9783 108.101 43.4658 109.236 42.1083C110.372 40.7509 111.693 39.6178 113.2 38.709C113.532 38.4874 113.868 38.468 114.206 38.6508C114.582 38.7837 114.854 39.1549 115.02 39.7643C117.353 39.6976 119.225 40.0936 120.638 40.9522C122.045 41.7665 122.849 42.9714 123.048 44.567ZM109.803 56.3522C109.969 56.9616 110.202 57.3826 110.501 57.6153C110.8 57.8479 111.132 57.9864 111.498 58.0307C111.858 58.0307 112.252 57.9365 112.678 57.7481C113.105 57.5596 113.506 57.3519 113.883 57.1247C114.299 56.8476 114.67 56.5761 114.997 56.3102C115.318 55.9999 115.576 55.7201 115.769 55.4708C116.866 54.1632 117.689 52.6423 118.237 50.9082C118.78 49.1297 119.015 47.2322 118.943 45.2155C118.91 44.9496 118.699 44.7059 118.311 44.4843C117.924 44.2627 117.433 44.1215 116.84 44.0606C116.286 43.9498 115.671 43.8917 114.996 43.8862C114.32 43.8807 113.674 43.939 113.059 44.0609C112.489 44.8975 111.949 45.7979 111.439 46.7619C110.929 47.726 110.517 48.7454 110.201 49.8202C109.88 50.8507 109.678 51.9339 109.595 53.0696C109.506 54.161 109.575 55.2552 109.803 56.3522ZM130.015 54.1615C129.572 54.2169 129.114 54.1616 128.644 53.9954C128.167 53.7849 127.807 53.2448 127.563 52.375C127.12 50.2697 126.668 47.9179 126.208 45.3196C125.748 42.7213 125.468 40.123 125.368 37.5246C125.412 37.159 125.57 36.8016 125.841 36.4525C126.157 36.0979 126.603 35.8846 127.179 35.8125C127.711 35.746 128.16 35.9149 128.526 36.3193C128.93 36.6739 129.179 37.0478 129.274 37.4412L129.34 37.973C129.418 37.8733 129.52 37.793 129.648 37.732C129.77 37.6267 129.869 37.5242 129.947 37.4245C130.889 36.6765 132.016 35.9728 133.329 35.3134C134.686 34.6484 136.032 34.255 137.368 34.133C138.708 34.0553 139.772 34.2823 140.559 34.8141C141.39 35.3404 141.642 36.2766 141.315 37.6229C140.784 39.1299 140.324 40.853 139.936 42.7921C139.543 44.6869 139.214 46.5512 138.948 48.385C139.358 48.0637 139.807 47.6924 140.294 47.2713C140.782 46.8502 141.247 46.4319 141.69 46.0163C142.172 45.5509 142.615 45.1354 143.02 44.7697C143.463 44.3541 143.826 44.0161 144.108 43.7557C144.596 43.3346 144.975 43.1296 145.247 43.1407C145.562 43.1462 145.773 43.2099 145.878 43.3317C146.128 43.5256 146.291 43.9328 146.369 44.5533C146.441 45.1295 146.333 45.7057 146.045 46.2819C145.419 47.3955 144.424 48.6228 143.062 49.9636C141.738 51.2546 140.236 52.3877 138.558 53.3629C138.22 53.5403 137.837 53.7231 137.411 53.9115C137.023 54.0501 136.649 54.1194 136.289 54.1194C135.923 54.0751 135.591 53.9366 135.292 53.704C135.031 53.4214 134.862 52.9699 134.785 52.3494C134.663 51.3743 134.618 50.2996 134.651 49.125C134.729 47.9449 134.848 46.7372 135.008 45.5017C135.169 44.2662 135.379 43.0695 135.64 41.9116C135.939 40.7038 136.224 39.5652 136.495 38.496C135.753 38.6788 134.961 39.003 134.119 39.4685C133.321 39.9284 132.523 40.3883 131.726 40.8482C131.138 41.1917 130.49 41.2278 129.781 40.9564C130.102 42.8068 130.399 44.6378 130.671 46.4494C130.981 48.2112 131.286 49.9286 131.585 51.6018C131.779 53.153 131.256 54.0062 130.015 54.1615ZM158.918 48.2503C158.979 48.7379 158.848 49.1368 158.527 49.447C158.2 49.713 157.832 49.8266 157.422 49.7879C157.012 49.7491 156.635 49.6162 156.292 49.3891C155.943 49.1176 155.632 48.7963 155.361 48.4252C155.134 48.0484 154.929 47.6689 154.746 47.2867C154.602 46.8546 154.51 46.4834 154.471 46.1731C153.956 43.1316 153.54 40.1676 153.224 37.2812C152.902 34.3504 152.678 31.4751 152.55 28.6551C152.517 27.669 152.794 27.0041 153.381 26.6606C153.963 26.2727 154.508 26.1369 155.018 26.2532C155.483 26.3751 155.927 26.6797 156.348 27.1673C156.763 27.6104 156.993 28.3694 157.038 29.4442C157.093 31.3279 157.196 33.2282 157.346 35.1451C158.908 34.6796 160.614 34.2861 162.465 33.9646C164.315 33.6431 166.141 33.4822 167.941 33.4821C168.484 33.5042 168.905 33.6316 169.204 33.8643C169.548 34.0914 169.759 34.3351 169.836 34.5955C169.908 34.8116 169.831 35.0914 169.604 35.4349C169.371 35.7341 169.019 35.9806 168.548 36.1746C166.919 36.8285 165.147 37.4103 163.23 37.9202C161.352 38.3802 159.49 38.7931 157.645 39.1589C157.795 40.7157 157.964 42.2476 158.153 43.7545C158.38 45.2116 158.635 46.7102 158.918 48.2503ZM153.101 53.0293C153.09 54.3811 153.093 55.8437 153.109 57.4171C153.165 58.9407 153.273 60.3451 153.434 61.6304C155.456 60.8823 157.284 60.0234 158.918 59.0538C160.547 58.0398 162.087 57.0368 163.539 56.045C164.165 55.6516 164.616 55.6626 164.893 56.0781C165.06 56.3274 165.126 56.6792 165.093 57.1335C165.06 57.5878 164.941 58.0754 164.736 58.5962C164.287 59.6876 163.592 60.6074 162.65 61.3554C161.708 62.1034 160.67 62.796 159.534 63.4332C158.78 63.8876 157.872 64.3614 156.808 64.8545C155.739 65.3034 154.697 65.6137 153.684 65.7856C152.714 65.9519 151.85 65.8799 151.091 65.5697C150.326 65.2152 149.811 64.5144 149.545 63.4674C149.157 61.8053 148.943 60.099 148.904 58.3482C148.91 56.592 148.987 55.0518 149.137 53.7277C149.203 53.1792 149.325 52.5337 149.502 51.7913C149.718 50.9991 150.084 50.5032 150.599 50.3037C151.353 50.2095 151.943 50.4282 152.369 50.9601C152.79 51.4476 153.034 52.1373 153.101 53.0293Z" fill="#26E45C"/>
</svg>
